ISO-10303-21;
HEADER;
FILE_DESCRIPTION (( 'STEP AP214' ),
    '1' );
FILE_NAME ('48VDC Plate.STEP',
    '2026-08-08T15:58:12',
    ( '' ),
    ( '' ),
    'SwSTEP 2.0',
    'SolidWorks 2026',
    '' );
FILE_SCHEMA (( 'AUTOMOTIVE_DESIGN' ));
ENDSEC;

DATA;
#1 = EDGE_LOOP ( 'NONE', ( #537, #39, #985, #451, #67, #772, #322, #1163, #400, #761, #225, #1128, #361, #620, #975, #650 ) ) ;
#2 = DIRECTION ( 'NONE',  ( 1.000000000000000000, 0.000000000000000000, 0.000000000000000000 ) ) ;
#3 = DIRECTION ( 'NONE',  ( 1.000000000000000000, 0.000000000000000000, 0.000000000000000000 ) ) ;
#4 = LINE ( 'NONE', #1239, #442 ) ;
#5 = CARTESIAN_POINT ( 'NONE',  ( -138.6675000000053899, -59.37250000000005201, 1.500000000000000000 ) ) ;
#6 = ORIENTED_EDGE ( 'NONE', *, *, #660, .F. ) ;
#7 = VERTEX_POINT ( 'NONE', #526 ) ;
#8 = EDGE_CURVE ( 'NONE', #1268, #121, #132, .T. ) ;
#9 = CYLINDRICAL_SURFACE ( 'NONE', #1281, 1.786000999999999284 ) ;
#10 = ADVANCED_FACE ( 'NONE', ( #546 ), #109, .F. ) ;
#11 = DIRECTION ( 'NONE',  ( -0.000000000000000000, -0.000000000000000000, 1.000000000000000000 ) ) ;
#12 = CARTESIAN_POINT ( 'NONE',  ( -23.82467847084322798, -155.5994230076072142, 1.500000000000000000 ) ) ;
#13 = AXIS2_PLACEMENT_3D ( 'NONE', #1028, #112, #366 ) ;
#14 = ORIENTED_EDGE ( 'NONE', *, *, #521, .F. ) ;
#15 = CARTESIAN_POINT ( 'NONE',  ( -3.929999999999928217, -103.7536284074074473, 1.500000000000000000 ) ) ;
#16 = VERTEX_POINT ( 'NONE', #855 ) ;
#17 = EDGE_CURVE ( 'NONE', #1001, #1161, #1141, .T. ) ;
#18 = LINE ( 'NONE', #438, #872 ) ;
#19 = LINE ( 'NONE', #1329, #92 ) ;
#20 = CARTESIAN_POINT ( 'NONE',  ( -10.81999999999460194, -125.1150839783655471, 1.500000000000000000 ) ) ;
#21 = ORIENTED_EDGE ( 'NONE', *, *, #1047, .T. ) ;
#22 = DIRECTION ( 'NONE',  ( -1.000000000000000000, -1.383168220047853462E-16, 0.000000000000000000 ) ) ;
#23 = ORIENTED_EDGE ( 'NONE', *, *, #387, .T. ) ;
#24 = CIRCLE ( 'NONE', #95, 1.786000999999999728 ) ;
#25 = DIRECTION ( 'NONE',  ( 1.000000000000000000, 0.000000000000000000, 0.000000000000000000 ) ) ;
#26 = EDGE_CURVE ( 'NONE', #1108, #234, #851, .T. ) ;
#27 = EDGE_LOOP ( 'NONE', ( #598, #310, #344, #979 ) ) ;
#28 = CARTESIAN_POINT ( 'NONE',  ( 7.070000000005405738, -54.61000000000002785, 1.500000000000000000 ) ) ;
#29 =( NAMED_UNIT ( * ) PLANE_ANGLE_UNIT ( ) SI_UNIT ( $, .RADIAN. ) );
#30 = ORIENTED_EDGE ( 'NONE', *, *, #890, .F. ) ;
#31 = AXIS2_PLACEMENT_3D ( 'NONE', #374, #991, #786 ) ;
#32 = AXIS2_PLACEMENT_3D ( 'NONE', #188, #612, #810 ) ;
#33 = PRODUCT_CONTEXT ( 'NONE', #248, 'mechanical' ) ;
#34 = CIRCLE ( 'NONE', #961, 4.762500000000002842 ) ;
#35 = ORIENTED_EDGE ( 'NONE', *, *, #387, .F. ) ;
#36 = EDGE_CURVE ( 'NONE', #152, #1060, #1022, .T. ) ;
#37 = ORIENTED_EDGE ( 'NONE', *, *, #874, .T. ) ;
#38 = DIRECTION ( 'NONE',  ( -0.000000000000000000, -0.000000000000000000, 1.000000000000000000 ) ) ;
#39 = ORIENTED_EDGE ( 'NONE', *, *, #1287, .T. ) ;
#40 = CIRCLE ( 'NONE', #729, 1.786000999999999728 ) ;
#41 = AXIS2_PLACEMENT_3D ( 'NONE', #915, #730, #513 ) ;
#42 = CARTESIAN_POINT ( 'NONE',  ( 3.856001000000071066, -77.21500000000003183, 1.500000000000000000 ) ) ;
#43 = ORIENTED_EDGE ( 'NONE', *, *, #994, .T. ) ;
#44 = DIRECTION ( 'NONE',  ( -1.000000000000000000, 0.000000000000000000, 0.000000000000000000 ) ) ;
#45 = EDGE_LOOP ( 'NONE', ( #448, #60, #557, #1184 ) ) ;
#46 = PRODUCT_DEFINITION_SHAPE ( 'NONE', 'NONE',  #558 ) ;
#47 = CARTESIAN_POINT ( 'NONE',  ( -119.2939898651272301, -60.96000000000002927, 1.500000000000000000 ) ) ;
#48 = DIRECTION ( 'NONE',  ( -1.000000000000000000, -1.383168220047853462E-16, 0.000000000000000000 ) ) ;
#49 = VERTEX_POINT ( 'NONE', #745 ) ;
#50 = CIRCLE ( 'NONE', #549, 4.762500000000000178 ) ;
#51 = FACE_OUTER_BOUND ( 'NONE', #954, .T. ) ;
#52 = ORIENTED_EDGE ( 'NONE', *, *, #1324, .T. ) ;
#53 = ADVANCED_FACE ( 'NONE', ( #1038 ), #126, .F. ) ;
#54 = DIRECTION ( 'NONE',  ( 1.000000000000000000, 0.000000000000000000, 0.000000000000000000 ) ) ;
#55 = VECTOR ( 'NONE', #381, 1000.000000000000000 ) ;
#56 = DIRECTION ( 'NONE',  ( 1.000000000000000000, 0.000000000000000000, 0.000000000000000000 ) ) ;
#57 = CIRCLE ( 'NONE', #1102, 4.762499999999999289 ) ;
#58 = ORIENTED_EDGE ( 'NONE', *, *, #142, .F. ) ;
#59 = DIRECTION ( 'NONE',  ( -0.000000000000000000, 0.000000000000000000, -1.000000000000000000 ) ) ;
#60 = ORIENTED_EDGE ( 'NONE', *, *, #813, .F. ) ;
#61 = DIRECTION ( 'NONE',  ( -0.000000000000000000, -0.000000000000000000, 1.000000000000000000 ) ) ;
#62 = EDGE_CURVE ( 'NONE', #350, #394, #488, .T. ) ;
#63 = AXIS2_PLACEMENT_3D ( 'NONE', #503, #698, #69 ) ;
#64 = DIRECTION ( 'NONE',  ( 1.000000000000000000, 0.000000000000000000, 0.000000000000000000 ) ) ;
#65 = EDGE_LOOP ( 'NONE', ( #705, #1335, #1079, #870 ) ) ;
#66 = DIRECTION ( 'NONE',  ( 1.000000000000000000, 0.000000000000000000, 0.000000000000000000 ) ) ;
#67 = ORIENTED_EDGE ( 'NONE', *, *, #1126, .T. ) ;
#68 = DIRECTION ( 'NONE',  ( -0.000000000000000000, -0.000000000000000000, 1.000000000000000000 ) ) ;
#69 = DIRECTION ( 'NONE',  ( 1.000000000000000000, 0.000000000000000000, 0.000000000000000000 ) ) ;
#70 = EDGE_LOOP ( 'NONE', ( #738, #889, #460, #137 ) ) ;
#71 = ADVANCED_FACE ( 'NONE', ( #1261 ), #1238, .T. ) ;
#72 = CIRCLE ( 'NONE', #1116, 2.110000000000000764 ) ;
#73 = CARTESIAN_POINT ( 'NONE',  ( -7.007173561823625718, -161.9113040990819457, -1.500000000000000000 ) ) ;
#74 = EDGE_LOOP ( 'NONE', ( #758, #505 ) ) ;
#75 = CARTESIAN_POINT ( 'NONE',  ( -140.2160009999999488, -167.6400000000000432, 1.500000000000000000 ) ) ;
#76 = CARTESIAN_POINT ( 'NONE',  ( -138.4299999999999500, -72.39000000000004320, 1.500000000000000000 ) ) ;
#77 = VERTEX_POINT ( 'NONE', #242 ) ;
#78 = AXIS2_PLACEMENT_3D ( 'NONE', #201, #925, #210 ) ;
#79 = EDGE_CURVE ( 'NONE', #544, #1062, #1321, .T. ) ;
#80 = CYLINDRICAL_SURFACE ( 'NONE', #470, 1.786001000000009276 ) ;
#81 = VERTEX_POINT ( 'NONE', #1148 ) ;
#82 = FACE_BOUND ( 'NONE', #471, .T. ) ;
#83 = FACE_OUTER_BOUND ( 'NONE', #483, .T. ) ;
#84 = AXIS2_PLACEMENT_3D ( 'NONE', #909, #784, #691 ) ;
#85 = AXIS2_PLACEMENT_3D ( 'NONE', #525, #1014, #90 ) ;
#86 = DIRECTION ( 'NONE',  ( -0.000000000000000000, -0.000000000000000000, 1.000000000000000000 ) ) ;
#87 = ORIENTED_EDGE ( 'NONE', *, *, #797, .F. ) ;
#88 = LINE ( 'NONE', #500, #301 ) ;
#89 = DIRECTION ( 'NONE',  ( 1.000000000000000000, 0.000000000000000000, 0.000000000000000000 ) ) ;
#90 = DIRECTION ( 'NONE',  ( 1.000000000000000000, 0.000000000000000000, 0.000000000000000000 ) ) ;
#91 = DIRECTION ( 'NONE',  ( -0.000000000000000000, -0.000000000000000000, 1.000000000000000000 ) ) ;
#92 = VECTOR ( 'NONE', #364, 1000.000000000000000 ) ;
#93 = ORIENTED_EDGE ( 'NONE', *, *, #988, .F. ) ;
#94 = DIRECTION ( 'NONE',  ( 1.000000000000000000, 0.000000000000000000, 0.000000000000000000 ) ) ;
#95 = AXIS2_PLACEMENT_3D ( 'NONE', #262, #887, #480 ) ;
#96 = EDGE_CURVE ( 'NONE', #883, #77, #732, .T. ) ;
#97 = CARTESIAN_POINT ( 'NONE',  ( -114.0822351594816837, -155.2957271066837563, 1.500000000000000000 ) ) ;
#98 = DIRECTION ( 'NONE',  ( 1.000000000000000000, 0.000000000000000000, 0.000000000000000000 ) ) ;
#99 = DIRECTION ( 'NONE',  ( 1.000000000000000000, 0.000000000000000000, 0.000000000000000000 ) ) ;
#100 = VECTOR ( 'NONE', #1164, 1000.000000000000000 ) ;
#101 = VERTEX_POINT ( 'NONE', #632 ) ;
#102 = PLANE ( 'NONE',  #635 ) ;
#103 = DIRECTION ( 'NONE',  ( -0.9362318318270996809, 0.3513829208622316624, 0.000000000000000000 ) ) ;
#104 = AXIS2_PLACEMENT_3D ( 'NONE', #604, #393, #1107 ) ;
#105 = DIRECTION ( 'NONE',  ( -0.000000000000000000, -0.000000000000000000, 1.000000000000000000 ) ) ;
#106 = DIRECTION ( 'NONE',  ( -0.000000000000000000, -0.000000000000000000, 1.000000000000000000 ) ) ;
#107 = ORIENTED_EDGE ( 'NONE', *, *, #239, .F. ) ;
#108 = CARTESIAN_POINT ( 'NONE',  ( 2.070000000000071783, -103.7536284074074473, 1.500000000000000000 ) ) ;
#109 = CYLINDRICAL_SURFACE ( 'NONE', #1187, 2.109999999999993658 ) ;
#110 = EDGE_CURVE ( 'NONE', #169, #781, #590, .T. ) ;
#111 = CARTESIAN_POINT ( 'NONE',  ( 2.307500000005405116, -157.4525000000051591, -1.500000000000000000 ) ) ;
#112 = DIRECTION ( 'NONE',  ( 0.000000000000000000, -0.000000000000000000, 1.000000000000000000 ) ) ;
#113 = ORIENTED_EDGE ( 'NONE', *, *, #1047, .F. ) ;
#114 = CARTESIAN_POINT ( 'NONE',  ( 0.2839990000000724990, -103.7536284074074473, 1.500000000000000000 ) ) ;
#115 = CIRCLE ( 'NONE', #398, 1.786001000000009276 ) ;
#116 = DIRECTION ( 'NONE',  ( 0.3513829208622316624, 0.9362318318270996809, 0.000000000000000000 ) ) ;
#117 = DIRECTION ( 'NONE',  ( 1.000000000000000000, 0.000000000000000000, 0.000000000000000000 ) ) ;
#118 = LINE ( 'NONE', #661, #884 ) ;
#119 = EDGE_CURVE ( 'NONE', #653, #1309, #18, .T. ) ;
#120 = CIRCLE ( 'NONE', #307, 4.762500000000002842 ) ;
#121 = VERTEX_POINT ( 'NONE', #1254 ) ;
#122 = VERTEX_POINT ( 'NONE', #627 ) ;
#123 = CARTESIAN_POINT ( 'NONE',  ( -26.79398986512725145, -145.9600000000000364, -1.500000000000000000 ) ) ;
#124 = ORIENTED_EDGE ( 'NONE', *, *, #1255, .F. ) ;
#125 = DIRECTION ( 'NONE',  ( 0.000000000000000000, 0.000000000000000000, 1.000000000000000000 ) ) ;
#126 = CYLINDRICAL_SURFACE ( 'NONE', #652, 1.786000999999999284 ) ;
#127 = DIRECTION ( 'NONE',  ( 1.000000000000000000, 0.000000000000000000, 0.000000000000000000 ) ) ;
#128 = CIRCLE ( 'NONE', #63, 2.109999999999986997 ) ;
#129 = ORIENTED_EDGE ( 'NONE', *, *, #575, .F. ) ;
#130 = CARTESIAN_POINT ( 'NONE',  ( -132.7600937442102804, -167.8775000000054547, -1.500000000000000000 ) ) ;
#131 = EDGE_CURVE ( 'NONE', #939, #658, #570, .T. ) ;
#132 = LINE ( 'NONE', #943, #202 ) ;
#133 = ORIENTED_EDGE ( 'NONE', *, *, #396, .T. ) ;
#134 = LINE ( 'NONE', #548, #942 ) ;
#135 = EDGE_CURVE ( 'NONE', #394, #350, #742, .T. ) ;
#136 = AXIS2_PLACEMENT_3D ( 'NONE', #348, #325, #1154 ) ;
#137 = ORIENTED_EDGE ( 'NONE', *, *, #976, .T. ) ;
#138 = CARTESIAN_POINT ( 'NONE',  ( 2.070000000000071783, -103.7536284074074473, -1.500000000000000000 ) ) ;
#139 = ORIENTED_EDGE ( 'NONE', *, *, #706, .F. ) ;
#140 = AXIS2_PLACEMENT_3D ( 'NONE', #963, #38, #1303 ) ;
#141 = VECTOR ( 'NONE', #22, 1000.000000000000000 ) ;
#142 = EDGE_CURVE ( 'NONE', #617, #968, #50, .T. ) ;
#143 = CARTESIAN_POINT ( 'NONE',  ( 7.070000000005405738, -54.61000000000002785, -1.500000000000000000 ) ) ;
#144 = EDGE_LOOP ( 'NONE', ( #839, #1064, #289, #1035 ) ) ;
#145 = ORIENTED_EDGE ( 'NONE', *, *, #613, .F. ) ;
#146 = CARTESIAN_POINT ( 'NONE',  ( -143.4300000000053501, -172.6400000000054433, -1.500000000000000000 ) ) ;
#147 = ORIENTED_EDGE ( 'NONE', *, *, #591, .F. ) ;
#148 = AXIS2_PLACEMENT_3D ( 'NONE', #1008, #911, #510 ) ;
#149 = DIRECTION ( 'NONE',  ( 1.000000000000000000, 0.000000000000000000, 0.000000000000000000 ) ) ;
#150 = VECTOR ( 'NONE', #1118, 1000.000000000000000 ) ;
#151 = DIRECTION ( 'NONE',  ( -0.000000000000000000, 0.000000000000000000, -1.000000000000000000 ) ) ;
#152 = VERTEX_POINT ( 'NONE', #1257 ) ;
#153 = EDGE_CURVE ( 'NONE', #720, #468, #1120, .T. ) ;
#154 = DIRECTION ( 'NONE',  ( -0.000000000000000000, -0.000000000000000000, 1.000000000000000000 ) ) ;
#155 =( LENGTH_UNIT ( ) NAMED_UNIT ( * ) SI_UNIT ( .MILLI., .METRE. ) );
#156 = ORIENTED_EDGE ( 'NONE', *, *, #506, .F. ) ;
#157 = DIRECTION ( 'NONE',  ( 1.000000000000000000, 0.000000000000000000, 0.000000000000000000 ) ) ;
#158 = DIRECTION ( 'NONE',  ( 1.000000000000000000, 0.000000000000000000, 0.000000000000000000 ) ) ;
#159 = ORIENTED_EDGE ( 'NONE', *, *, #490, .F. ) ;
#160 = VECTOR ( 'NONE', #1249, 1000.000000000000114 ) ;
#161 = EDGE_CURVE ( 'NONE', #1062, #1313, #206, .T. ) ;
#162 = DIRECTION ( 'NONE',  ( 0.000000000000000000, 0.000000000000000000, -1.000000000000000000 ) ) ;
#163 = VERTEX_POINT ( 'NONE', #844 ) ;
#164 = CYLINDRICAL_SURFACE ( 'NONE', #1020, 2.109999999999993658 ) ;
#165 = LINE ( 'NONE', #589, #903 ) ;
#166 = CIRCLE ( 'NONE', #1326, 4.762499999999999289 ) ;
#167 = EDGE_LOOP ( 'NONE', ( #58, #427, #861, #1289 ) ) ;
#168 = FACE_OUTER_BOUND ( 'NONE', #280, .T. ) ;
#169 = VERTEX_POINT ( 'NONE', #527 ) ;
#170 = CARTESIAN_POINT ( 'NONE',  ( -5.333712401217246324, -157.4525000000053865, -1.500000000000000000 ) ) ;
#171 = VECTOR ( 'NONE', #799, 1000.000000000000000 ) ;
#172 = CARTESIAN_POINT ( 'NONE',  ( -138.6675000000053615, -167.8775000000054547, -1.500000000000000000 ) ) ;
#173 = EDGE_CURVE ( 'NONE', #16, #893, #4, .T. ) ;
#174 = ORIENTED_EDGE ( 'NONE', *, *, #591, .T. ) ;
#175 = CARTESIAN_POINT ( 'NONE',  ( -138.4299999999999500, -72.39000000000004320, -1.500000000000000000 ) ) ;
#176 = VERTEX_POINT ( 'NONE', #834 ) ;
#177 = CARTESIAN_POINT ( 'NONE',  ( -12.92999999999459426, -125.1150839783655471, 1.500000000000000000 ) ) ;
#178 = EDGE_CURVE ( 'NONE', #565, #962, #1137, .T. ) ;
#179 = FACE_OUTER_BOUND ( 'NONE', #144, .T. ) ;
#180 = ORIENTED_EDGE ( 'NONE', *, *, #928, .T. ) ;
#181 = AXIS2_PLACEMENT_3D ( 'NONE', #682, #973, #1196 ) ;
#182 = FACE_OUTER_BOUND ( 'NONE', #1195, .T. ) ;
#183 = ORIENTED_EDGE ( 'NONE', *, *, #1304, .F. ) ;
#184 = DIRECTION ( 'NONE',  ( 0.000000000000000000, -0.000000000000000000, 1.000000000000000000 ) ) ;
#185 = DIRECTION ( 'NONE',  ( -0.000000000000000000, -0.000000000000000000, -1.000000000000000000 ) ) ;
#186 = FACE_BOUND ( 'NONE', #800, .T. ) ;
#187 = EDGE_LOOP ( 'NONE', ( #1125, #523, #1243, #611 ) ) ;
#188 = CARTESIAN_POINT ( 'NONE',  ( -12.92999999999459426, -125.1150839783655471, 1.500000000000001332 ) ) ;
#189 = DIRECTION ( 'NONE',  ( 1.000000000000000000, 0.000000000000000000, 0.000000000000000000 ) ) ;
#190 = CARTESIAN_POINT ( 'NONE',  ( -15.03999999999458126, -125.1150839783655471, 1.500000000000001332 ) ) ;
#191 = AXIS2_PLACEMENT_3D ( 'NONE', #763, #1273, #640 ) ;
#192 = DIRECTION ( 'NONE',  ( -1.000000000000000000, 0.000000000000000000, 0.000000000000000000 ) ) ;
#193 = ADVANCED_FACE ( 'NONE', ( #740 ), #849, .F. ) ;
#194 = ORIENTED_EDGE ( 'NONE', *, *, #283, .T. ) ;
#195 = CARTESIAN_POINT ( 'NONE',  ( 3.856001000000071510, -157.2150000000000318, 1.500000000000000000 ) ) ;
#196 = FACE_OUTER_BOUND ( 'NONE', #655, .T. ) ;
#197 = CARTESIAN_POINT ( 'NONE',  ( -138.4299999999999500, -167.6400000000000432, 1.500000000000000000 ) ) ;
#198 = DIRECTION ( 'NONE',  ( -1.000000000000000000, 0.000000000000000000, 0.000000000000000000 ) ) ;
#199 = VECTOR ( 'NONE', #986, 1000.000000000000000 ) ;
#200 = ORIENTED_EDGE ( 'NONE', *, *, #62, .F. ) ;
#201 = CARTESIAN_POINT ( 'NONE',  ( 2.070000000000071783, -77.21500000000003183, -1.500000000000000000 ) ) ;
#202 = VECTOR ( 'NONE', #639, 1000.000000000000000 ) ;
#203 = SURFACE_STYLE_FILL_AREA ( #1115 ) ;
#204 = DIRECTION ( 'NONE',  ( 0.000000000000000000, -0.000000000000000000, 1.000000000000000000 ) ) ;
#205 = CIRCLE ( 'NONE', #765, 1.786001000000009276 ) ;
#206 = LINE ( 'NONE', #439, #1256 ) ;
#207 = DIRECTION ( 'NONE',  ( 0.000000000000000000, 0.000000000000000000, 1.000000000000000000 ) ) ;
#208 = AXIS2_PLACEMENT_3D ( 'NONE', #657, #1063, #66 ) ;
#209 = VERTEX_POINT ( 'NONE', #818 ) ;
#210 = DIRECTION ( 'NONE',  ( 1.000000000000000000, 0.000000000000000000, 0.000000000000000000 ) ) ;
#211 = ORIENTED_EDGE ( 'NONE', *, *, #8, .T. ) ;
#212 = CYLINDRICAL_SURFACE ( 'NONE', #906, 2.110000000000000764 ) ;
#213 = ADVANCED_FACE ( 'NONE', ( #196 ), #508, .F. ) ;
#214 = DIRECTION ( 'NONE',  ( -0.000000000000000000, 0.000000000000000000, -1.000000000000000000 ) ) ;
#215 = CIRCLE ( 'NONE', #1131, 4.762500000000002842 ) ;
#216 = CYLINDRICAL_SURFACE ( 'NONE', #479, 2.109999999999993658 ) ;
#217 = VERTEX_POINT ( 'NONE', #709 ) ;
#218 = CYLINDRICAL_SURFACE ( 'NONE', #551, 2.109999999999991882 ) ;
#219 = LINE ( 'NONE', #1027, #1200 ) ;
#220 = CARTESIAN_POINT ( 'NONE',  ( 2.070000000000071783, -157.2150000000000318, 1.500000000000000000 ) ) ;
#221 = EDGE_CURVE ( 'NONE', #1144, #455, #72, .T. ) ;
#222 = CARTESIAN_POINT ( 'NONE',  ( -6.197999999994659781, -162.2150000000054035, 1.500000000000000000 ) ) ;
#223 = LINE ( 'NONE', #143, #410 ) ;
#224 = EDGE_LOOP ( 'NONE', ( #716, #492, #1253, #330 ) ) ;
#225 = ORIENTED_EDGE ( 'NONE', *, *, #1058, .F. ) ;
#226 = DIRECTION ( 'NONE',  ( 1.000000000000000000, 0.000000000000000000, 0.000000000000000000 ) ) ;
#227 = PRESENTATION_LAYER_ASSIGNMENT (  '', '', ( #699 ) ) ;
#228 = CARTESIAN_POINT ( 'NONE',  ( 0.000000000000000000, 0.000000000000000000, 0.000000000000000000 ) ) ;
#229 = DIRECTION ( 'NONE',  ( 0.000000000000000000, -0.000000000000000000, 1.000000000000000000 ) ) ;
#230 = DIRECTION ( 'NONE',  ( 0.000000000000000000, 0.000000000000000000, -1.000000000000000000 ) ) ;
#231 = EDGE_LOOP ( 'NONE', ( #452, #259 ) ) ;
#232 = LINE ( 'NONE', #953, #1235 ) ;
#233 = EDGE_CURVE ( 'NONE', #169, #253, #811, .T. ) ;
#234 = VERTEX_POINT ( 'NONE', #402 ) ;
#235 = MANIFOLD_SOLID_BREP ( 'Hole for M3 300\X2\00ae\X0\ SC Nuts (SP)2', #1097 ) ;
#236 = CARTESIAN_POINT ( 'NONE',  ( 2.070000000000071783, -157.2150000000000318, 1.500000000000000000 ) ) ;
#237 = AXIS2_PLACEMENT_3D ( 'NONE', #610, #1334, #192 ) ;
#238 = ORIENTED_EDGE ( 'NONE', *, *, #1149, .F. ) ;
#239 = EDGE_CURVE ( 'NONE', #552, #350, #19, .T. ) ;
#240 = CARTESIAN_POINT ( 'NONE',  ( 0.2839990000000729431, -157.2150000000000318, -1.500000000000000000 ) ) ;
#241 = ORIENTED_EDGE ( 'NONE', *, *, #135, .T. ) ;
#242 = CARTESIAN_POINT ( 'NONE',  ( -23.82467847084322798, -155.5994230076072142, -1.500000000000000000 ) ) ;
#243 = EDGE_LOOP ( 'NONE', ( #156, #1222, #867, #684 ) ) ;
#244 = DIRECTION ( 'NONE',  ( -0.000000000000000000, -0.000000000000000000, 1.000000000000000000 ) ) ;
#245 = ORIENTED_EDGE ( 'NONE', *, *, #1193, .T. ) ;
#246 = ADVANCED_FACE ( 'NONE', ( #980 ), #673, .T. ) ;
#247 =( GEOMETRIC_REPRESENTATION_CONTEXT ( 3 ) GLOBAL_UNCERTAINTY_ASSIGNED_CONTEXT ( ( #463 ) ) GLOBAL_UNIT_ASSIGNED_CONTEXT ( ( #155, #29, #550 ) ) REPRESENTATION_CONTEXT ( 'NONE', 'WORKASPACE' ) );
#248 = APPLICATION_CONTEXT ( 'automotive_design' ) ;
#249 = ORIENTED_EDGE ( 'NONE', *, *, #173, .T. ) ;
#250 = ORIENTED_EDGE ( 'NONE', *, *, #1167, .T. ) ;
#251 = CARTESIAN_POINT ( 'NONE',  ( -136.6439989999999227, -72.39000000000004320, -1.500000000000000000 ) ) ;
#252 = CIRCLE ( 'NONE', #1002, 2.109999999999986997 ) ;
#253 = VERTEX_POINT ( 'NONE', #473 ) ;
#254 = AXIS2_PLACEMENT_3D ( 'NONE', #599, #408, #1012 ) ;
#255 = CARTESIAN_POINT ( 'NONE',  ( -138.4299999999999500, -72.39000000000004320, -1.500000000000000000 ) ) ;
#256 = APPLICATION_PROTOCOL_DEFINITION ( 'draft international standard', 'automotive_design', 1998, #248 ) ;
#257 = EDGE_CURVE ( 'NONE', #893, #354, #359, .T. ) ;
#258 = CYLINDRICAL_SURFACE ( 'NONE', #794, 2.109999999999993658 ) ;
#259 = ORIENTED_EDGE ( 'NONE', *, *, #291, .F. ) ;
#260 = CARTESIAN_POINT ( 'NONE',  ( -12.92999999999459426, -77.11508397836554707, 1.500000000000001332 ) ) ;
#261 = ORIENTED_EDGE ( 'NONE', *, *, #1307, .T. ) ;
#262 = CARTESIAN_POINT ( 'NONE',  ( 2.070000000000071783, -77.21500000000003183, 1.500000000000000000 ) ) ;
#263 = DIRECTION ( 'NONE',  ( -0.000000000000000000, -0.000000000000000000, 1.000000000000000000 ) ) ;
#264 = EDGE_LOOP ( 'NONE', ( #1198, #579, #581, #1103 ) ) ;
#265 = ADVANCED_FACE ( 'NONE', ( #769 ), #164, .F. ) ;
#266 = DIRECTION ( 'NONE',  ( 0.000000000000000000, -0.000000000000000000, 1.000000000000000000 ) ) ;
#267 = ORIENTED_EDGE ( 'NONE', *, *, #79, .F. ) ;
#268 = FACE_BOUND ( 'NONE', #554, .T. ) ;
#269 = DIRECTION ( 'NONE',  ( -1.000000000000000000, 0.000000000000000000, 0.000000000000000000 ) ) ;
#270 = CIRCLE ( 'NONE', #1231, 2.109999999999986997 ) ;
#271 = EDGE_LOOP ( 'NONE', ( #282, #952 ) ) ;
#272 = AXIS2_PLACEMENT_3D ( 'NONE', #933, #956, #25 ) ;
#273 = CYLINDRICAL_SURFACE ( 'NONE', #208, 1.786001000000009276 ) ;
#274 = VERTEX_POINT ( 'NONE', #689 ) ;
#275 = CYLINDRICAL_SURFACE ( 'NONE', #1162, 1.786000999999999284 ) ;
#276 = EDGE_CURVE ( 'NONE', #367, #121, #315, .T. ) ;
#277 = AXIS2_PLACEMENT_3D ( 'NONE', #630, #647, #651 ) ;
#278 = DIRECTION ( 'NONE',  ( -0.7214441975301376653, 0.6924725769661177477, 0.000000000000000000 ) ) ;
#279 = CIRCLE ( 'NONE', #449, 4.762500000000000178 ) ;
#280 = EDGE_LOOP ( 'NONE', ( #1010, #1095, #1158, #837 ) ) ;
#281 = DIRECTION ( 'NONE',  ( 1.000000000000000000, 0.000000000000000000, 0.000000000000000000 ) ) ;
#282 = ORIENTED_EDGE ( 'NONE', *, *, #1134, .T. ) ;
#283 = EDGE_CURVE ( 'NONE', #455, #234, #1299, .T. ) ;
#284 = FACE_BOUND ( 'NONE', #295, .T. ) ;
#285 = AXIS2_PLACEMENT_3D ( 'NONE', #482, #278, #683 ) ;
#286 = DIRECTION ( 'NONE',  ( 0.000000000000000000, -0.000000000000000000, 1.000000000000000000 ) ) ;
#287 = ORIENTED_EDGE ( 'NONE', *, *, #131, .T. ) ;
#288 = DIRECTION ( 'NONE',  ( 0.000000000000000000, 0.000000000000000000, -1.000000000000000000 ) ) ;
#289 = ORIENTED_EDGE ( 'NONE', *, *, #1126, .F. ) ;
#290 = LINE ( 'NONE', #803, #787 ) ;
#291 = EDGE_CURVE ( 'NONE', #121, #367, #24, .T. ) ;
#292 = LINE ( 'NONE', #1175, #645 ) ;
#293 = VECTOR ( 'NONE', #1136, 1000.000000000000114 ) ;
#294 = FACE_BOUND ( 'NONE', #231, .T. ) ;
#295 = EDGE_LOOP ( 'NONE', ( #808, #174 ) ) ;
#296 = CARTESIAN_POINT ( 'NONE',  ( -143.4300000000053785, -54.61000000000004917, 1.500000000000000000 ) ) ;
#297 = DIRECTION ( 'NONE',  ( 0.000000000000000000, -0.000000000000000000, -1.000000000000000000 ) ) ;
#298 = AXIS2_PLACEMENT_3D ( 'NONE', #484, #566, #281 ) ;
#299 = EDGE_LOOP ( 'NONE', ( #1292, #412, #194, #743 ) ) ;
#300 = EDGE_CURVE ( 'NONE', #720, #863, #674, .T. ) ;
#301 = VECTOR ( 'NONE', #1096, 1000.000000000000114 ) ;
#302 = CARTESIAN_POINT ( 'NONE',  ( -138.4299999999999500, -72.39000000000004320, 1.500000000000000000 ) ) ;
#303 = VERTEX_POINT ( 'NONE', #993 ) ;
#304 = DIRECTION ( 'NONE',  ( 1.000000000000000000, 0.000000000000000000, 0.000000000000000000 ) ) ;
#305 = CARTESIAN_POINT ( 'NONE',  ( -121.4039898651272438, -60.96000000000002927, -1.500000000000000000 ) ) ;
#306 = CARTESIAN_POINT ( 'NONE',  ( -15.03999999999458481, -77.11508397836554707, 1.500000000000000000 ) ) ;
#307 = AXIS2_PLACEMENT_3D ( 'NONE', #1112, #516, #406 ) ;
#308 = EDGE_CURVE ( 'NONE', #669, #1313, #270, .T. ) ;
#309 = LINE ( 'NONE', #411, #1242 ) ;
#310 = ORIENTED_EDGE ( 'NONE', *, *, #731, .F. ) ;
#311 = DIRECTION ( 'NONE',  ( -0.000000000000000000, -0.000000000000000000, 1.000000000000000000 ) ) ;
#312 = DIRECTION ( 'NONE',  ( -0.6924725769661176367, -0.7214441975301375543, 0.000000000000000000 ) ) ;
#313 = CARTESIAN_POINT ( 'NONE',  ( 7.070000000005405738, -172.6400000000054433, -1.500000000000000000 ) ) ;
#314 = CARTESIAN_POINT ( 'NONE',  ( 7.070000000005405738, -157.4525000000051591, 1.500000000000000000 ) ) ;
#315 = CIRCLE ( 'NONE', #1210, 1.786000999999999728 ) ;
#316 = ORIENTED_EDGE ( 'NONE', *, *, #712, .T. ) ;
#317 = EDGE_CURVE ( 'NONE', #998, #347, #1166, .T. ) ;
#318 = DIRECTION ( 'NONE',  ( 0.000000000000000000, -0.000000000000000000, 1.000000000000000000 ) ) ;
#319 = CARTESIAN_POINT ( 'NONE',  ( -143.4300000000053501, -172.6400000000054433, 1.500000000000000000 ) ) ;
#320 = VECTOR ( 'NONE', #748, 1000.000000000000000 ) ;
#321 = DIRECTION ( 'NONE',  ( 1.000000000000000000, 0.000000000000000000, 0.000000000000000000 ) ) ;
#322 = ORIENTED_EDGE ( 'NONE', *, *, #403, .T. ) ;
#323 = CARTESIAN_POINT ( 'NONE',  ( 3.856001000000070622, -157.2150000000000318, -1.500000000000000000 ) ) ;
#324 = FACE_OUTER_BOUND ( 'NONE', #65, .T. ) ;
#325 = DIRECTION ( 'NONE',  ( 0.000000000000000000, 0.000000000000000000, 1.000000000000000000 ) ) ;
#326 = CIRCLE ( 'NONE', #990, 4.762500000000000178 ) ;
#327 = CARTESIAN_POINT ( 'NONE',  ( 2.307500000005405116, -59.37250000000003070, 1.500000000000000000 ) ) ;
#328 = AXIS2_PLACEMENT_3D ( 'NONE', #197, #921, #941 ) ;
#329 = CARTESIAN_POINT ( 'NONE',  ( -140.2160009999999488, -167.6400000000000432, -1.500000000000000000 ) ) ;
#330 = ORIENTED_EDGE ( 'NONE', *, *, #521, .T. ) ;
#331 = ORIENTED_EDGE ( 'NONE', *, *, #233, .T. ) ;
#332 = CARTESIAN_POINT ( 'NONE',  ( 2.307500000005546337, -162.2150000000051477, 1.500000000000000000 ) ) ;
#333 = ORIENTED_EDGE ( 'NONE', *, *, #178, .F. ) ;
#334 = CARTESIAN_POINT ( 'NONE',  ( -138.6675000000053899, -59.37250000000005201, 1.500000000000000000 ) ) ;
#335 = EDGE_CURVE ( 'NONE', #1284, #681, #115, .T. ) ;
#336 = FACE_OUTER_BOUND ( 'NONE', #843, .T. ) ;
#337 = ORIENTED_EDGE ( 'NONE', *, *, #660, .T. ) ;
#338 = DIRECTION ( 'NONE',  ( 1.000000000000000000, 0.000000000000000000, 0.000000000000000000 ) ) ;
#339 = AXIS2_PLACEMENT_3D ( 'NONE', #343, #1050, #1225 ) ;
#340 =( NAMED_UNIT ( * ) SI_UNIT ( $, .STERADIAN. ) SOLID_ANGLE_UNIT ( ) );
#341 = DIRECTION ( 'NONE',  ( -0.000000000000000000, -0.000000000000000000, 1.000000000000000000 ) ) ;
#342 = EDGE_CURVE ( 'NONE', #1144, #1108, #588, .T. ) ;
#343 = CARTESIAN_POINT ( 'NONE',  ( -12.92999999999459426, -77.11508397836554707, 1.500000000000000000 ) ) ;
#344 = ORIENTED_EDGE ( 'NONE', *, *, #17, .T. ) ;
#345 = AXIS2_PLACEMENT_3D ( 'NONE', #643, #728, #1151 ) ;
#346 = CARTESIAN_POINT ( 'NONE',  ( 2.307500000005404228, -54.61000000000002785, 1.500000000000000000 ) ) ;
#347 = VERTEX_POINT ( 'NONE', #1278 ) ;
#348 = CARTESIAN_POINT ( 'NONE',  ( 2.307500000005405116, -157.4525000000051591, -1.500000000000000000 ) ) ;
#349 = CIRCLE ( 'NONE', #84, 1.786000999999998839 ) ;
#350 = VERTEX_POINT ( 'NONE', #486 ) ;
#351 = CARTESIAN_POINT ( 'NONE',  ( -138.6675000000053899, -54.61000000000004917, 1.500000000000000000 ) ) ;
#352 = ORIENTED_EDGE ( 'NONE', *, *, #413, .F. ) ;
#353 = ORIENTED_EDGE ( 'NONE', *, *, #1324, .F. ) ;
#354 = VERTEX_POINT ( 'NONE', #894 ) ;
#355 = PLANE ( 'NONE',  #1213 ) ;
#356 = ORIENTED_EDGE ( 'NONE', *, *, #1211, .F. ) ;
#357 = ADVANCED_FACE ( 'NONE', ( #659 ), #568, .F. ) ;
#358 = CARTESIAN_POINT ( 'NONE',  ( 2.070000000000071783, -103.7536284074074473, 1.500000000000000000 ) ) ;
#359 = CIRCLE ( 'NONE', #978, 1.786000999999999728 ) ;
#360 = CARTESIAN_POINT ( 'NONE',  ( -143.4300000000053785, -59.37250000000005201, 1.500000000000000000 ) ) ;
#361 = ORIENTED_EDGE ( 'NONE', *, *, #971, .F. ) ;
#362 = DIRECTION ( 'NONE',  ( 1.000000000000000000, 0.000000000000000000, 0.000000000000000000 ) ) ;
#363 = ORIENTED_EDGE ( 'NONE', *, *, #959, .F. ) ;
#364 = DIRECTION ( 'NONE',  ( -0.000000000000000000, -0.000000000000000000, 1.000000000000000000 ) ) ;
#365 = ADVANCED_FACE ( 'NONE', ( #1182 ), #275, .F. ) ;
#366 = DIRECTION ( 'NONE',  ( 1.000000000000000000, 0.000000000000000000, 0.000000000000000000 ) ) ;
#367 = VERTEX_POINT ( 'NONE', #493 ) ;
#368 = CYLINDRICAL_SURFACE ( 'NONE', #1146, 1.786000999999999284 ) ;
#369 = ORIENTED_EDGE ( 'NONE', *, *, #1142, .F. ) ;
#370 = VECTOR ( 'NONE', #286, 1000.000000000000000 ) ;
#371 = DIRECTION ( 'NONE',  ( -0.000000000000000000, -0.000000000000000000, 1.000000000000000000 ) ) ;
#372 = CARTESIAN_POINT ( 'NONE',  ( -12.92999999999459426, -125.1150839783655471, -1.500000000000000000 ) ) ;
#373 = EDGE_CURVE ( 'NONE', #347, #1161, #419, .T. ) ;
#374 = CARTESIAN_POINT ( 'NONE',  ( -3.929999999999928217, -103.7536284074074473, 1.500000000000000000 ) ) ;
#375 = ORIENTED_EDGE ( 'NONE', *, *, #257, .F. ) ;
#376 = DIRECTION ( 'NONE',  ( -0.000000000000000000, -0.000000000000000000, 1.000000000000000000 ) ) ;
#377 = DIRECTION ( 'NONE',  ( -0.000000000000000000, -0.000000000000000000, 1.000000000000000000 ) ) ;
#378 = AXIS2_PLACEMENT_3D ( 'NONE', #541, #649, #644 ) ;
#379 = ORIENTED_EDGE ( 'NONE', *, *, #461, .T. ) ;
#380 = ADVANCED_FACE ( 'NONE', ( #900, #268, #1084, #875, #465, #284, #82, #1209, #1124, #401, #512 ), #102, .F. ) ;
#381 = DIRECTION ( 'NONE',  ( -0.000000000000000000, -0.000000000000000000, -1.000000000000000000 ) ) ;
#382 = ORIENTED_EDGE ( 'NONE', *, *, #633, .F. ) ;
#383 = DIRECTION ( 'NONE',  ( -0.000000000000000000, -0.000000000000000000, 1.000000000000000000 ) ) ;
#384 = VECTOR ( 'NONE', #754, 1000.000000000000000 ) ;
#385 = DIRECTION ( 'NONE',  ( -1.000000000000000000, 0.000000000000000000, 0.000000000000000000 ) ) ;
#386 = ORIENTED_EDGE ( 'NONE', *, *, #173, .F. ) ;
#387 = EDGE_CURVE ( 'NONE', #1060, #274, #1114, .T. ) ;
#388 = CYLINDRICAL_SURFACE ( 'NONE', #237, 4.762500000000000178 ) ;
#389 = VERTEX_POINT ( 'NONE', #722 ) ;
#390 = DIRECTION ( 'NONE',  ( -0.000000000000000000, 0.000000000000000000, 1.000000000000000000 ) ) ;
#391 = CARTESIAN_POINT ( 'NONE',  ( -5.716000999999927501, -103.7536284074074473, 1.500000000000000000 ) ) ;
#392 = ORIENTED_EDGE ( 'NONE', *, *, #300, .T. ) ;
#393 = DIRECTION ( 'NONE',  ( -0.000000000000000000, -0.000000000000000000, 1.000000000000000000 ) ) ;
#394 = VERTEX_POINT ( 'NONE', #195 ) ;
#395 = CARTESIAN_POINT ( 'NONE',  ( -143.4300000000053501, -172.6400000000054433, 1.500000000000000000 ) ) ;
#396 = EDGE_CURVE ( 'NONE', #440, #1046, #725, .T. ) ;
#397 = DIRECTION ( 'NONE',  ( 1.000000000000000000, 1.383168220047853462E-16, 0.000000000000000000 ) ) ;
#398 = AXIS2_PLACEMENT_3D ( 'NONE', #255, #376, #563 ) ;
#399 = PLANE ( 'NONE',  #940 ) ;
#400 = ORIENTED_EDGE ( 'NONE', *, *, #712, .F. ) ;
#401 = FACE_BOUND ( 'NONE', #271, .T. ) ;
#402 = CARTESIAN_POINT ( 'NONE',  ( -119.2939898651272443, -60.96000000000002927, 1.500000000000001332 ) ) ;
#403 = EDGE_CURVE ( 'NONE', #622, #1170, #88, .T. ) ;
#404 = LINE ( 'NONE', #1212, #1311 ) ;
#405 = VECTOR ( 'NONE', #913, 1000.000000000000000 ) ;
#406 = DIRECTION ( 'NONE',  ( 1.000000000000000000, 0.000000000000000000, 0.000000000000000000 ) ) ;
#407 = ORIENTED_EDGE ( 'NONE', *, *, #1206, .F. ) ;
#408 = DIRECTION ( 'NONE',  ( -0.000000000000000000, -0.000000000000000000, 1.000000000000000000 ) ) ;
#409 = PLANE ( 'NONE',  #602 ) ;
#410 = VECTOR ( 'NONE', #48, 1000.000000000000000 ) ;
#411 = CARTESIAN_POINT ( 'NONE',  ( 2.307500000005404228, -54.61000000000002785, 1.500000000000000000 ) ) ;
#412 = ORIENTED_EDGE ( 'NONE', *, *, #928, .F. ) ;
#413 = EDGE_CURVE ( 'NONE', #389, #962, #57, .T. ) ;
#414 = CARTESIAN_POINT ( 'NONE',  ( -15.03999999999459192, -77.11508397836554707, -1.500000000000000000 ) ) ;
#415 = CARTESIAN_POINT ( 'NONE',  ( -2.143998999999928490, -103.7536284074074473, 1.500000000000000000 ) ) ;
#416 = DIRECTION ( 'NONE',  ( 1.000000000000000000, 0.000000000000000000, 0.000000000000000000 ) ) ;
#417 = CARTESIAN_POINT ( 'NONE',  ( -31.01398986512725386, -145.9600000000000364, -1.500000000000000000 ) ) ;
#418 = EDGE_CURVE ( 'NONE', #1188, #1268, #983, .T. ) ;
#419 = CIRCLE ( 'NONE', #181, 1.786001000000009276 ) ;
#420 = ORIENTED_EDGE ( 'NONE', *, *, #119, .F. ) ;
#421 = DIRECTION ( 'NONE',  ( 1.000000000000000000, 0.000000000000000000, 0.000000000000000000 ) ) ;
#422 = CARTESIAN_POINT ( 'NONE',  ( -24.63385203267212020, -155.2957271066837563, 1.500000000000000000 ) ) ;
#423 = EDGE_LOOP ( 'NONE', ( #896, #572, #755, #1005 ) ) ;
#424 = CIRCLE ( 'NONE', #514, 2.110000000000000764 ) ;
#425 = DIRECTION ( 'NONE',  ( -0.000000000000000000, -0.000000000000000000, 1.000000000000000000 ) ) ;
#426 = CARTESIAN_POINT ( 'NONE',  ( 2.307500000005546337, -162.2150000000051477, -1.500000000000000000 ) ) ;
#427 = ORIENTED_EDGE ( 'NONE', *, *, #1160, .F. ) ;
#428 = EDGE_LOOP ( 'NONE', ( #775, #1122 ) ) ;
#429 = DIRECTION ( 'NONE',  ( -0.000000000000000000, -0.000000000000000000, 1.000000000000000000 ) ) ;
#430 = DIRECTION ( 'NONE',  ( 1.000000000000000000, 0.000000000000000000, 0.000000000000000000 ) ) ;
#431 = VECTOR ( 'NONE', #1316, 1000.000000000000000 ) ;
#432 = VECTOR ( 'NONE', #204, 1000.000000000000000 ) ;
#433 = FACE_OUTER_BOUND ( 'NONE', #587, .T. ) ;
#434 = VERTEX_POINT ( 'NONE', #1336 ) ;
#435 = LINE ( 'NONE', #847, #534 ) ;
#436 =( NAMED_UNIT ( * ) PLANE_ANGLE_UNIT ( ) SI_UNIT ( $, .RADIAN. ) );
#437 = EDGE_CURVE ( 'NONE', #629, #394, #1315, .T. ) ;
#438 = CARTESIAN_POINT ( 'NONE',  ( -2.143998999999928934, -103.7536284074074473, 1.500000000000000000 ) ) ;
#439 = CARTESIAN_POINT ( 'NONE',  ( -31.01398986512724676, -145.9600000000000364, 1.500000000000000000 ) ) ;
#440 = VERTEX_POINT ( 'NONE', #414 ) ;
#441 = DIRECTION ( 'NONE',  ( -0.000000000000000000, -0.000000000000000000, 1.000000000000000000 ) ) ;
#442 = VECTOR ( 'NONE', #425, 1000.000000000000000 ) ;
#443 = EDGE_LOOP ( 'NONE', ( #511, #886, #636, #386 ) ) ;
#444 = AXIS2_PLACEMENT_3D ( 'NONE', #334, #229, #3 ) ;
#445 = CARTESIAN_POINT ( 'NONE',  ( 2.070000000000071783, -157.2150000000000318, 1.500000000000000000 ) ) ;
#446 = EDGE_CURVE ( 'NONE', #101, #389, #524, .T. ) ;
#447 = AXIS2_PLACEMENT_3D ( 'NONE', #1109, #908, #816 ) ;
#448 = ORIENTED_EDGE ( 'NONE', *, *, #641, .F. ) ;
#449 = AXIS2_PLACEMENT_3D ( 'NONE', #866, #665, #759 ) ;
#450 = DIRECTION ( 'NONE',  ( -0.000000000000000000, -0.000000000000000000, 1.000000000000000000 ) ) ;
#451 = ORIENTED_EDGE ( 'NONE', *, *, #498, .T. ) ;
#452 = ORIENTED_EDGE ( 'NONE', *, *, #276, .F. ) ;
#453 = CIRCLE ( 'NONE', #191, 1.786000999999998839 ) ;
#454 = ADVANCED_FACE ( 'NONE', ( #823 ), #1320, .F. ) ;
#455 = VERTEX_POINT ( 'NONE', #1306 ) ;
#456 = DIRECTION ( 'NONE',  ( -0.000000000000000000, -0.000000000000000000, 1.000000000000000000 ) ) ;
#457 = EDGE_CURVE ( 'NONE', #354, #893, #472, .T. ) ;
#458 = ORIENTED_EDGE ( 'NONE', *, *, #335, .F. ) ;
#459 = CARTESIAN_POINT ( 'NONE',  ( -136.6439989999999227, -167.6400000000000432, -1.500000000000000000 ) ) ;
#460 = ORIENTED_EDGE ( 'NONE', *, *, #119, .T. ) ;
#461 = EDGE_CURVE ( 'NONE', #468, #1262, #616, .T. ) ;
#462 = CYLINDRICAL_SURFACE ( 'NONE', #618, 4.762500000000002842 ) ;
#463 = UNCERTAINTY_MEASURE_WITH_UNIT (LENGTH_MEASURE( 1.000000000000000082E-05 ), #155, 'distance_accuracy_value', 'NONE');
#464 = ORIENTED_EDGE ( 'NONE', *, *, #608, .F. ) ;
#465 = FACE_BOUND ( 'NONE', #74, .T. ) ;
#466 = VECTOR ( 'NONE', #1189, 1000.000000000000000 ) ;
#467 = CARTESIAN_POINT ( 'NONE',  ( -28.90398986512725088, -145.9600000000000364, 1.500000000000000000 ) ) ;
#468 = VERTEX_POINT ( 'NONE', #798 ) ;
#469 = DIRECTION ( 'NONE',  ( 1.000000000000000000, 0.000000000000000000, 0.000000000000000000 ) ) ;
#470 = AXIS2_PLACEMENT_3D ( 'NONE', #302, #86, #711 ) ;
#471 = EDGE_LOOP ( 'NONE', ( #21, #261 ) ) ;
#472 = CIRCLE ( 'NONE', #576, 1.786000999999999728 ) ;
#473 = CARTESIAN_POINT ( 'NONE',  ( -129.3242157534729984, -171.1754006478065833, 1.500000000000000000 ) ) ;
#474 = DIRECTION ( 'NONE',  ( -0.000000000000000000, 0.000000000000000000, -1.000000000000000000 ) ) ;
#475 = EDGE_CURVE ( 'NONE', #962, #77, #290, .T. ) ;
#476 = ORIENTED_EDGE ( 'NONE', *, *, #36, .T. ) ;
#477 = DIRECTION ( 'NONE',  ( -2.928686001046147374E-14, 1.000000000000000000, 0.000000000000000000 ) ) ;
#478 = ORIENTED_EDGE ( 'NONE', *, *, #971, .T. ) ;
#479 = AXIS2_PLACEMENT_3D ( 'NONE', #1138, #1040, #536 ) ;
#480 = DIRECTION ( 'NONE',  ( 1.000000000000000000, 0.000000000000000000, 0.000000000000000000 ) ) ;
#481 = ADVANCED_FACE ( 'NONE', ( #1328 ), #1025, .F. ) ;
#482 = CARTESIAN_POINT ( 'NONE',  ( -114.0822351594816837, -155.2957271066837563, -1.500000000000000000 ) ) ;
#483 = EDGE_LOOP ( 'NONE', ( #331, #1216, #1150, #1024 ) ) ;
#484 = CARTESIAN_POINT ( 'NONE',  ( -138.4299999999999500, -167.6400000000000432, -1.500000000000000000 ) ) ;
#485 = EDGE_LOOP ( 'NONE', ( #989, #802 ) ) ;
#486 = CARTESIAN_POINT ( 'NONE',  ( 0.2839990000000720549, -157.2150000000000318, 1.500000000000000000 ) ) ;
#487 = CARTESIAN_POINT ( 'NONE',  ( -138.4299999999999500, -72.39000000000004320, 1.500000000000000000 ) ) ;
#488 = CIRCLE ( 'NONE', #1296, 1.786000999999999728 ) ;
#489 = ORIENTED_EDGE ( 'NONE', *, *, #153, .T. ) ;
#490 = EDGE_CURVE ( 'NONE', #7, #653, #960, .T. ) ;
#491 = CARTESIAN_POINT ( 'NONE',  ( -138.4299999999999500, -167.6400000000000432, 1.500000000000000000 ) ) ;
#492 = ORIENTED_EDGE ( 'NONE', *, *, #1160, .T. ) ;
#493 = CARTESIAN_POINT ( 'NONE',  ( 3.856001000000071510, -77.21500000000003183, 1.500000000000000000 ) ) ;
#494 = CIRCLE ( 'NONE', #1080, 1.786000999999998839 ) ;
#495 = CARTESIAN_POINT ( 'NONE',  ( -132.7600937442102804, -172.6400000000054433, 1.500000000000000000 ) ) ;
#496 = EDGE_LOOP ( 'NONE', ( #574, #517, #547, #145 ) ) ;
#497 = FACE_OUTER_BOUND ( 'NONE', #1152, .T. ) ;
#498 = EDGE_CURVE ( 'NONE', #77, #101, #166, .T. ) ;
#499 = EDGE_LOOP ( 'NONE', ( #1067, #133 ) ) ;
#500 = CARTESIAN_POINT ( 'NONE',  ( -114.0822351594816837, -155.2957271066837563, -1.500000000000000000 ) ) ;
#501 = VECTOR ( 'NONE', #556, 1000.000000000000000 ) ;
#502 = AXIS2_PLACEMENT_3D ( 'NONE', #603, #509, #1237 ) ;
#503 = CARTESIAN_POINT ( 'NONE',  ( -12.92999999999459426, -125.1150839783655471, 1.500000000000001332 ) ) ;
#504 = FACE_BOUND ( 'NONE', #778, .T. ) ;
#505 = ORIENTED_EDGE ( 'NONE', *, *, #335, .T. ) ;
#506 = EDGE_CURVE ( 'NONE', #1062, #544, #424, .T. ) ;
#507 = CARTESIAN_POINT ( 'NONE',  ( -25.49813963144960738, -160.0582271066837734, -1.500000000000000000 ) ) ;
#508 = CYLINDRICAL_SURFACE ( 'NONE', #760, 1.786001000000009276 ) ;
#509 = DIRECTION ( 'NONE',  ( -0.000000000000000000, -0.000000000000000000, 1.000000000000000000 ) ) ;
#510 = DIRECTION ( 'NONE',  ( 1.000000000000000000, 0.000000000000000000, 0.000000000000000000 ) ) ;
#511 = ORIENTED_EDGE ( 'NONE', *, *, #753, .F. ) ;
#512 = FACE_OUTER_BOUND ( 'NONE', #1, .T. ) ;
#513 = DIRECTION ( 'NONE',  ( 1.000000000000000000, 0.000000000000000000, 0.000000000000000000 ) ) ;
#514 = AXIS2_PLACEMENT_3D ( 'NONE', #1224, #311, #707 ) ;
#515 = EDGE_CURVE ( 'NONE', #658, #152, #1056, .T. ) ;
#516 = DIRECTION ( 'NONE',  ( 0.000000000000000000, -0.000000000000000000, 1.000000000000000000 ) ) ;
#517 = ORIENTED_EDGE ( 'NONE', *, *, #670, .F. ) ;
#518 = DIRECTION ( 'NONE',  ( 1.000000000000000000, 5.827942386483762322E-15, 0.000000000000000000 ) ) ;
#519 = AXIS2_PLACEMENT_3D ( 'NONE', #487, #263, #1300 ) ;
#520 = DIRECTION ( 'NONE',  ( -1.000000000000000000, 0.000000000000000000, 0.000000000000000000 ) ) ;
#521 = EDGE_CURVE ( 'NONE', #209, #939, #1252, .T. ) ;
#522 = CARTESIAN_POINT ( 'NONE',  ( 2.307500000005544560, -162.2150000000051477, -1.500000000000000000 ) ) ;
#523 = ORIENTED_EDGE ( 'NONE', *, *, #342, .T. ) ;
#524 = LINE ( 'NONE', #1203, #1147 ) ;
#525 = CARTESIAN_POINT ( 'NONE',  ( -5.333712401217246324, -157.4525000000053865, -1.500000000000000000 ) ) ;
#526 = CARTESIAN_POINT ( 'NONE',  ( -5.716000999999927501, -103.7536284074074473, -1.500000000000000000 ) ) ;
#527 = CARTESIAN_POINT ( 'NONE',  ( -115.4880194060140468, -156.7603264588826448, 1.500000000000000000 ) ) ;
#528 = CARTESIAN_POINT ( 'NONE',  ( -121.4039898651272438, -60.96000000000002927, 1.500000000000000000 ) ) ;
#529 = VECTOR ( 'NONE', #312, 1000.000000000000114 ) ;
#530 = ORIENTED_EDGE ( 'NONE', *, *, #791, .F. ) ;
#531 = CARTESIAN_POINT ( 'NONE',  ( -143.4300000000053785, -54.61000000000004917, 1.500000000000000000 ) ) ;
#532 = DIRECTION ( 'NONE',  ( 1.383168220047853462E-16, -1.000000000000000000, 0.000000000000000000 ) ) ;
#533 = CARTESIAN_POINT ( 'NONE',  ( -12.92999999999459426, -125.1150839783655471, 1.500000000000000000 ) ) ;
#534 = VECTOR ( 'NONE', #744, 1000.000000000000000 ) ;
#535 = DIRECTION ( 'NONE',  ( -0.000000000000000000, -0.000000000000000000, 1.000000000000000000 ) ) ;
#536 = DIRECTION ( 'NONE',  ( 1.000000000000000000, 0.000000000000000000, 0.000000000000000000 ) ) ;
#537 = ORIENTED_EDGE ( 'NONE', *, *, #539, .T. ) ;
#538 = ORIENTED_EDGE ( 'NONE', *, *, #1009, .F. ) ;
#539 = EDGE_CURVE ( 'NONE', #968, #865, #1043, .T. ) ;
#540 = CARTESIAN_POINT ( 'NONE',  ( -143.4300000000053501, -167.8775000000054547, -1.500000000000000000 ) ) ;
#541 = CARTESIAN_POINT ( 'NONE',  ( -28.90398986512725088, -145.9600000000000364, -1.500000000000000000 ) ) ;
#542 = ORIENTED_EDGE ( 'NONE', *, *, #633, .T. ) ;
#543 = FACE_OUTER_BOUND ( 'NONE', #1181, .T. ) ;
#544 = VERTEX_POINT ( 'NONE', #123 ) ;
#545 = EDGE_CURVE ( 'NONE', #1130, #253, #1260, .T. ) ;
#546 = FACE_OUTER_BOUND ( 'NONE', #859, .T. ) ;
#547 = ORIENTED_EDGE ( 'NONE', *, *, #569, .F. ) ;
#548 = CARTESIAN_POINT ( 'NONE',  ( -140.2160009999999488, -72.39000000000004320, 1.500000000000000000 ) ) ;
#549 = AXIS2_PLACEMENT_3D ( 'NONE', #111, #718, #416 ) ;
#550 =( NAMED_UNIT ( * ) SI_UNIT ( $, .STERADIAN. ) SOLID_ANGLE_UNIT ( ) );
#551 = AXIS2_PLACEMENT_3D ( 'NONE', #1048, #637, #1236 ) ;
#552 = VERTEX_POINT ( 'NONE', #240 ) ;
#553 = DIRECTION ( 'NONE',  ( 1.000000000000000000, 0.000000000000000000, 0.000000000000000000 ) ) ;
#554 = EDGE_LOOP ( 'NONE', ( #180, #1269 ) ) ;
#555 = SHAPE_DEFINITION_REPRESENTATION ( #46, #907 ) ;
#556 = DIRECTION ( 'NONE',  ( 2.351569568383262162E-16, -1.000000000000000000, 0.000000000000000000 ) ) ;
#557 = ORIENTED_EDGE ( 'NONE', *, *, #1009, .T. ) ;
#558 = PRODUCT_DEFINITION ( 'UNKNOWN', '', #1133, #1291 ) ;
#559 = AXIS2_PLACEMENT_3D ( 'NONE', #1092, #377, #158 ) ;
#560 = EDGE_LOOP ( 'NONE', ( #768, #693 ) ) ;
#561 = CARTESIAN_POINT ( 'NONE',  ( -5.333712401217105992, -162.2150000000053751, -1.500000000000000000 ) ) ;
#562 = VERTEX_POINT ( 'NONE', #332 ) ;
#563 = DIRECTION ( 'NONE',  ( 1.000000000000000000, 0.000000000000000000, 0.000000000000000000 ) ) ;
#564 = DIRECTION ( 'NONE',  ( -0.000000000000000000, -0.000000000000000000, 1.000000000000000000 ) ) ;
#565 = VERTEX_POINT ( 'NONE', #1132 ) ;
#566 = DIRECTION ( 'NONE',  ( -0.000000000000000000, -0.000000000000000000, 1.000000000000000000 ) ) ;
#567 = ORIENTED_EDGE ( 'NONE', *, *, #110, .T. ) ;
#568 = CYLINDRICAL_SURFACE ( 'NONE', #783, 1.786000999999999284 ) ;
#569 = EDGE_CURVE ( 'NONE', #565, #902, #1302, .T. ) ;
#570 = CIRCLE ( 'NONE', #717, 4.762500000000000178 ) ;
#571 = PLANE ( 'NONE',  #1220 ) ;
#572 = ORIENTED_EDGE ( 'NONE', *, *, #1331, .F. ) ;
#573 = CYLINDRICAL_SURFACE ( 'NONE', #1192, 4.762500000000002842 ) ;
#574 = ORIENTED_EDGE ( 'NONE', *, *, #1287, .F. ) ;
#575 = EDGE_CURVE ( 'NONE', #16, #1082, #494, .T. ) ;
#576 = AXIS2_PLACEMENT_3D ( 'NONE', #1030, #621, #94 ) ;
#577 = CARTESIAN_POINT ( 'NONE',  ( -12.92999999999459426, -125.1150839783655471, -1.500000000000000000 ) ) ;
#578 = LINE ( 'NONE', #1294, #926 ) ;
#579 = ORIENTED_EDGE ( 'NONE', *, *, #239, .T. ) ;
#580 = CARTESIAN_POINT ( 'NONE',  ( -26.79398986512726566, -145.9600000000000364, 1.500000000000001332 ) ) ;
#581 = ORIENTED_EDGE ( 'NONE', *, *, #62, .T. ) ;
#582 = CIRCLE ( 'NONE', #685, 1.786001000000009276 ) ;
#583 = DIRECTION ( 'NONE',  ( 1.000000000000000000, 0.000000000000000000, 0.000000000000000000 ) ) ;
#584 = CARTESIAN_POINT ( 'NONE',  ( 7.070000000005405738, -172.6400000000054433, 1.500000000000000000 ) ) ;
#585 = ORIENTED_EDGE ( 'NONE', *, *, #1099, .F. ) ;
#586 = DIRECTION ( 'NONE',  ( 1.000000000000000000, 0.000000000000000000, -0.000000000000000000 ) ) ;
#587 = EDGE_LOOP ( 'NONE', ( #1070, #530, #1241, #353 ) ) ;
#588 = LINE ( 'NONE', #1071, #466 ) ;
#589 = CARTESIAN_POINT ( 'NONE',  ( -24.63385203267212020, -155.2957271066837563, -1.500000000000000000 ) ) ;
#590 = CIRCLE ( 'NONE', #1075, 4.762500000000002842 ) ;
#591 = EDGE_CURVE ( 'NONE', #998, #1001, #856, .T. ) ;
#592 = CARTESIAN_POINT ( 'NONE',  ( -121.4039898651272438, -60.96000000000002927, -1.500000000000000000 ) ) ;
#593 = EDGE_LOOP ( 'NONE', ( #159, #836, #1093, #420 ) ) ;
#594 = CARTESIAN_POINT ( 'NONE',  ( 0.000000000000000000, 0.000000000000000000, -1.500000000000000000 ) ) ;
#595 = CARTESIAN_POINT ( 'NONE',  ( -26.79398986512725855, -145.9600000000000364, 1.500000000000000000 ) ) ;
#596 = ADVANCED_FACE ( 'NONE', ( #853 ), #218, .F. ) ;
#597 = CARTESIAN_POINT ( 'NONE',  ( -5.333712401217102439, -162.2150000000053751, 1.500000000000000000 ) ) ;
#598 = ORIENTED_EDGE ( 'NONE', *, *, #317, .F. ) ;
#599 = CARTESIAN_POINT ( 'NONE',  ( -3.929999999999928217, -103.7536284074074473, -1.500000000000000000 ) ) ;
#600 = AXIS2_PLACEMENT_3D ( 'NONE', #528, #741, #628 ) ;
#601 = SURFACE_SIDE_STYLE ('',( #203 ) ) ;
#602 = AXIS2_PLACEMENT_3D ( 'NONE', #1323, #532, #397 ) ;
#603 = CARTESIAN_POINT ( 'NONE',  ( -12.92999999999459426, -77.11508397836554707, 1.500000000000001332 ) ) ;
#604 = CARTESIAN_POINT ( 'NONE',  ( 2.070000000000071783, -77.21500000000003183, -1.500000000000000000 ) ) ;
#605 = ORIENTED_EDGE ( 'NONE', *, *, #569, .T. ) ;
#606 = CARTESIAN_POINT ( 'NONE',  ( 3.856001000000071066, -157.2150000000000318, 1.500000000000000000 ) ) ;
#607 = SURFACE_STYLE_USAGE ( .BOTH. , #601 ) ;
#608 = EDGE_CURVE ( 'NONE', #1082, #354, #1052, .T. ) ;
#609 = DIRECTION ( 'NONE',  ( -0.000000000000000000, -0.000000000000000000, 1.000000000000000000 ) ) ;
#610 = CARTESIAN_POINT ( 'NONE',  ( 2.307500000005405116, -59.37250000000003070, 1.500000000000000000 ) ) ;
#611 = ORIENTED_EDGE ( 'NONE', *, *, #283, .F. ) ;
#612 = DIRECTION ( 'NONE',  ( -0.000000000000000000, -0.000000000000000000, 1.000000000000000000 ) ) ;
#613 = EDGE_CURVE ( 'NONE', #883, #565, #232, .T. ) ;
#614 = CARTESIAN_POINT ( 'NONE',  ( -6.197999999994659781, -162.2150000000054035, -1.500000000000000000 ) ) ;
#615 = CIRCLE ( 'NONE', #31, 1.786000999999999728 ) ;
#616 = CIRCLE ( 'NONE', #32, 2.109999999999986997 ) ;
#617 = VERTEX_POINT ( 'NONE', #1140 ) ;
#618 = AXIS2_PLACEMENT_3D ( 'NONE', #1276, #162, #44 ) ;
#619 = DIRECTION ( 'NONE',  ( -0.000000000000000000, -0.000000000000000000, 1.000000000000000000 ) ) ;
#620 = ORIENTED_EDGE ( 'NONE', *, *, #959, .T. ) ;
#621 = DIRECTION ( 'NONE',  ( -0.000000000000000000, -0.000000000000000000, 1.000000000000000000 ) ) ;
#622 = VERTEX_POINT ( 'NONE', #1244 ) ;
#623 = EDGE_CURVE ( 'NONE', #1170, #217, #1123, .T. ) ;
#624 = CIRCLE ( 'NONE', #104, 1.786000999999998839 ) ;
#625 = LINE ( 'NONE', #831, #432 ) ;
#627 = CARTESIAN_POINT ( 'NONE',  ( -5.716000999999928389, -103.7536284074074473, 1.500000000000000000 ) ) ;
#626 = VECTOR ( 'NONE', #609, 1000.000000000000000 ) ;
#628 = DIRECTION ( 'NONE',  ( 1.000000000000000000, 0.000000000000000000, 0.000000000000000000 ) ) ;
#629 = VERTEX_POINT ( 'NONE', #323 ) ;
#630 = CARTESIAN_POINT ( 'NONE',  ( -5.333712401217246324, -157.4525000000053865, 1.500000000000000000 ) ) ;
#631 = FACE_OUTER_BOUND ( 'NONE', #187, .T. ) ;
#632 = CARTESIAN_POINT ( 'NONE',  ( -25.49813963144960738, -155.2957271066837563, -1.500000000000000000 ) ) ;
#633 = EDGE_CURVE ( 'NONE', #982, #152, #947, .T. ) ;
#634 = CARTESIAN_POINT ( 'NONE',  ( -3.929999999999928217, -103.7536284074074473, 1.500000000000000000 ) ) ;
#635 = AXIS2_PLACEMENT_3D ( 'NONE', #594, #184, #1018 ) ;
#636 = ORIENTED_EDGE ( 'NONE', *, *, #457, .T. ) ;
#637 = DIRECTION ( 'NONE',  ( -0.000000000000000000, -0.000000000000000000, 1.000000000000000000 ) ) ;
#638 = EDGE_LOOP ( 'NONE', ( #1229, #727, #478, #542 ) ) ;
#639 = DIRECTION ( 'NONE',  ( -0.000000000000000000, -0.000000000000000000, 1.000000000000000000 ) ) ;
#640 = DIRECTION ( 'NONE',  ( 1.000000000000000000, 0.000000000000000000, 0.000000000000000000 ) ) ;
#641 = EDGE_CURVE ( 'NONE', #1284, #1029, #134, .T. ) ;
#642 = EDGE_LOOP ( 'NONE', ( #124, #238, #1165, #734 ) ) ;
#643 = CARTESIAN_POINT ( 'NONE',  ( -132.7600937442102804, -167.8775000000054547, 1.500000000000000000 ) ) ;
#644 = DIRECTION ( 'NONE',  ( 1.000000000000000000, 0.000000000000000000, 0.000000000000000000 ) ) ;
#645 = VECTOR ( 'NONE', #474, 1000.000000000000000 ) ;
#646 = ORIENTED_EDGE ( 'NONE', *, *, #575, .T. ) ;
#647 = DIRECTION ( 'NONE',  ( 0.000000000000000000, -0.000000000000000000, 1.000000000000000000 ) ) ;
#648 = ADVANCED_FACE ( 'NONE', ( #543 ), #958, .F. ) ;
#649 = DIRECTION ( 'NONE',  ( -0.000000000000000000, -0.000000000000000000, 1.000000000000000000 ) ) ;
#650 = ORIENTED_EDGE ( 'NONE', *, *, #142, .T. ) ;
#651 = DIRECTION ( 'NONE',  ( 1.000000000000000000, 0.000000000000000000, 0.000000000000000000 ) ) ;
#652 = AXIS2_PLACEMENT_3D ( 'NONE', #445, #11, #833 ) ;
#653 = VERTEX_POINT ( 'NONE', #1263 ) ;
#654 = ADVANCED_FACE ( 'NONE', ( #1259 ), #9, .F. ) ;
#655 = EDGE_LOOP ( 'NONE', ( #147, #1317, #945, #892 ) ) ;
#656 = VERTEX_POINT ( 'NONE', #540 ) ;
#657 = CARTESIAN_POINT ( 'NONE',  ( -138.4299999999999500, -72.39000000000004320, 1.500000000000000000 ) ) ;
#658 = VERTEX_POINT ( 'NONE', #346 ) ;
#659 = FACE_OUTER_BOUND ( 'NONE', #873, .T. ) ;
#660 = EDGE_CURVE ( 'NONE', #1060, #1298, #435, .T. ) ;
#661 = CARTESIAN_POINT ( 'NONE',  ( -136.6439989999999227, -72.39000000000004320, 1.500000000000000000 ) ) ;
#662 = ORIENTED_EDGE ( 'NONE', *, *, #446, .F. ) ;
#663 = VECTOR ( 'NONE', #106, 1000.000000000000000 ) ;
#664 = CIRCLE ( 'NONE', #502, 2.109999999999986997 ) ;
#665 = DIRECTION ( 'NONE',  ( 0.000000000000000000, -0.000000000000000000, 1.000000000000000000 ) ) ;
#666 = VERTEX_POINT ( 'NONE', #1081 ) ;
#667 = DIRECTION ( 'NONE',  ( -0.000000000000000000, -0.000000000000000000, 1.000000000000000000 ) ) ;
#668 = DIRECTION ( 'NONE',  ( 0.000000000000000000, 0.000000000000000000, 1.000000000000000000 ) ) ;
#669 = VERTEX_POINT ( 'NONE', #580 ) ;
#670 = EDGE_CURVE ( 'NONE', #902, #865, #780, .T. ) ;
#671 = DIRECTION ( 'NONE',  ( 1.000000000000000000, 0.000000000000000000, 0.000000000000000000 ) ) ;
#672 = ORIENTED_EDGE ( 'NONE', *, *, #1248, .F. ) ;
#673 = CYLINDRICAL_SURFACE ( 'NONE', #675, 4.762500000000000178 ) ;
#674 = CIRCLE ( 'NONE', #1039, 2.110000000000000764 ) ;
#675 = AXIS2_PLACEMENT_3D ( 'NONE', #170, #1090, #880 ) ;
#676 = CARTESIAN_POINT ( 'NONE',  ( -115.4880194060140468, -156.7603264588826448, 1.500000000000000000 ) ) ;
#677 = ORIENTED_EDGE ( 'NONE', *, *, #515, .T. ) ;
#678 = ADVANCED_FACE ( 'NONE', ( #1283 ), #462, .F. ) ;
#679 = CARTESIAN_POINT ( 'NONE',  ( 2.070000000000071783, -103.7536284074074473, -1.500000000000000000 ) ) ;
#680 = AXIS2_PLACEMENT_3D ( 'NONE', #1145, #736, #226 ) ;
#681 = VERTEX_POINT ( 'NONE', #251 ) ;
#682 = CARTESIAN_POINT ( 'NONE',  ( -138.4299999999999500, -167.6400000000000432, 1.500000000000000000 ) ) ;
#683 = DIRECTION ( 'NONE',  ( -0.6924725769661176367, -0.7214441975301375543, 0.000000000000000000 ) ) ;
#684 = ORIENTED_EDGE ( 'NONE', *, *, #1193, .F. ) ;
#685 = AXIS2_PLACEMENT_3D ( 'NONE', #76, #901, #56 ) ;
#686 = CARTESIAN_POINT ( 'NONE',  ( -10.81999999999460194, -77.11508397836554707, 1.500000000000000000 ) ) ;
#687 = ORIENTED_EDGE ( 'NONE', *, *, #670, .T. ) ;
#688 =( GEOMETRIC_REPRESENTATION_CONTEXT ( 3 ) GLOBAL_UNCERTAINTY_ASSIGNED_CONTEXT ( ( #1180 ) ) GLOBAL_UNIT_ASSIGNED_CONTEXT ( ( #1267, #436, #340 ) ) REPRESENTATION_CONTEXT ( 'NONE', 'WORKASPACE' ) );
#689 = CARTESIAN_POINT ( 'NONE',  ( -143.4300000000053501, -167.8775000000054547, 1.500000000000000000 ) ) ;
#690 = EDGE_CURVE ( 'NONE', #49, #622, #34, .T. ) ;
#691 = DIRECTION ( 'NONE',  ( 1.000000000000000000, 0.000000000000000000, 0.000000000000000000 ) ) ;
#692 = EDGE_CURVE ( 'NONE', #562, #930, #279, .T. ) ;
#693 = ORIENTED_EDGE ( 'NONE', *, *, #506, .T. ) ;
#694 = CARTESIAN_POINT ( 'NONE',  ( 3.856001000000071510, -103.7536284074074473, 1.500000000000000000 ) ) ;
#695 = ORIENTED_EDGE ( 'NONE', *, *, #1106, .T. ) ;
#696 = DIRECTION ( 'NONE',  ( -0.000000000000000000, -0.000000000000000000, 1.000000000000000000 ) ) ;
#697 = ADVANCED_FACE ( 'NONE', ( #970 ), #273, .F. ) ;
#698 = DIRECTION ( 'NONE',  ( -0.000000000000000000, -0.000000000000000000, 1.000000000000000000 ) ) ;
#699 = STYLED_ITEM ( 'NONE', ( #1019 ), #235 ) ;
#700 = CYLINDRICAL_SURFACE ( 'NONE', #1310, 4.762499999999999289 ) ;
#701 = ORIENTED_EDGE ( 'NONE', *, *, #437, .T. ) ;
#702 = DIRECTION ( 'NONE',  ( 0.000000000000000000, -0.000000000000000000, -1.000000000000000000 ) ) ;
#703 = LINE ( 'NONE', #313, #150 ) ;
#704 = FACE_BOUND ( 'NONE', #815, .T. ) ;
#705 = ORIENTED_EDGE ( 'NONE', *, *, #96, .F. ) ;
#706 = EDGE_CURVE ( 'NONE', #163, #176, #858, .T. ) ;
#707 = DIRECTION ( 'NONE',  ( 1.000000000000000000, 0.000000000000000000, 0.000000000000000000 ) ) ;
#708 = CIRCLE ( 'NONE', #751, 2.110000000000000764 ) ;
#709 = CARTESIAN_POINT ( 'NONE',  ( -132.7600937442102804, -172.6400000000054433, -1.500000000000000000 ) ) ;
#710 = LINE ( 'NONE', #306, #626 ) ;
#711 = DIRECTION ( 'NONE',  ( 1.000000000000000000, 0.000000000000000000, 0.000000000000000000 ) ) ;
#712 = EDGE_CURVE ( 'NONE', #303, #217, #767, .T. ) ;
#713 = ORIENTED_EDGE ( 'NONE', *, *, #308, .T. ) ;
#714 = DIRECTION ( 'NONE',  ( 2.351569568383262162E-16, -1.000000000000000000, 0.000000000000000000 ) ) ;
#715 = DIRECTION ( 'NONE',  ( -1.000000000000000000, -2.928686001046148005E-14, 0.000000000000000000 ) ) ;
#716 = ORIENTED_EDGE ( 'NONE', *, *, #1178, .F. ) ;
#717 = AXIS2_PLACEMENT_3D ( 'NONE', #327, #951, #127 ) ;
#718 = DIRECTION ( 'NONE',  ( -0.000000000000000000, 0.000000000000000000, -1.000000000000000000 ) ) ;
#719 = CARTESIAN_POINT ( 'NONE',  ( -25.49813963144960738, -160.0582271066837734, -1.500000000000000000 ) ) ;
#720 = VERTEX_POINT ( 'NONE', #1069 ) ;
#721 = EDGE_CURVE ( 'NONE', #1046, #163, #1186, .T. ) ;
#722 = CARTESIAN_POINT ( 'NONE',  ( -25.49813963144960738, -155.2957271066837563, 1.500000000000000000 ) ) ;
#723 = ORIENTED_EDGE ( 'NONE', *, *, #131, .F. ) ;
#724 = CARTESIAN_POINT ( 'NONE',  ( -140.2160009999999488, -72.39000000000004320, -1.500000000000000000 ) ) ;
#725 = CIRCLE ( 'NONE', #447, 2.109999999999998987 ) ;
#726 = PLANE ( 'NONE',  #948 ) ;
#727 = ORIENTED_EDGE ( 'NONE', *, *, #914, .T. ) ;
#728 = DIRECTION ( 'NONE',  ( 0.000000000000000000, -0.000000000000000000, 1.000000000000000000 ) ) ;
#729 = AXIS2_PLACEMENT_3D ( 'NONE', #634, #619, #733 ) ;
#730 = DIRECTION ( 'NONE',  ( -0.000000000000000000, -0.000000000000000000, 1.000000000000000000 ) ) ;
#731 = EDGE_CURVE ( 'NONE', #1001, #998, #1279, .T. ) ;
#732 = LINE ( 'NONE', #950, #293 ) ;
#733 = DIRECTION ( 'NONE',  ( 1.000000000000000000, 0.000000000000000000, 0.000000000000000000 ) ) ;
#734 = ORIENTED_EDGE ( 'NONE', *, *, #706, .T. ) ;
#735 = ORIENTED_EDGE ( 'NONE', *, *, #539, .F. ) ;
#736 = DIRECTION ( 'NONE',  ( -0.000000000000000000, -0.000000000000000000, 1.000000000000000000 ) ) ;
#737 = ORIENTED_EDGE ( 'NONE', *, *, #1338, .F. ) ;
#738 = ORIENTED_EDGE ( 'NONE', *, *, #1159, .F. ) ;
#739 = ADVANCED_FACE ( 'NONE', ( #51 ), #355, .F. ) ;
#740 = FACE_OUTER_BOUND ( 'NONE', #910, .T. ) ;
#741 = DIRECTION ( 'NONE',  ( -0.000000000000000000, -0.000000000000000000, 1.000000000000000000 ) ) ;
#742 = CIRCLE ( 'NONE', #825, 1.786000999999999728 ) ;
#743 = ORIENTED_EDGE ( 'NONE', *, *, #1099, .T. ) ;
#744 = DIRECTION ( 'NONE',  ( 0.000000000000000000, 0.000000000000000000, -1.000000000000000000 ) ) ;
#745 = CARTESIAN_POINT ( 'NONE',  ( -112.0521414152767505, -155.2957271066837563, -1.500000000000000000 ) ) ;
#746 = AXIS2_PLACEMENT_3D ( 'NONE', #395, #1230, #318 ) ;
#747 = ORIENTED_EDGE ( 'NONE', *, *, #874, .F. ) ;
#748 = DIRECTION ( 'NONE',  ( -1.000000000000000000, -2.928686001046148005E-14, 0.000000000000000000 ) ) ;
#749 = APPLICATION_PROTOCOL_DEFINITION ( 'draft international standard', 'automotive_design', 1998, #1157 ) ;
#750 = DIRECTION ( 'NONE',  ( 1.000000000000000000, 0.000000000000000000, 0.000000000000000000 ) ) ;
#751 = AXIS2_PLACEMENT_3D ( 'NONE', #372, #1078, #771 ) ;
#752 = ORIENTED_EDGE ( 'NONE', *, *, #1228, .T. ) ;
#753 = EDGE_CURVE ( 'NONE', #1082, #16, #809, .T. ) ;
#754 = DIRECTION ( 'NONE',  ( -0.000000000000000000, -0.000000000000000000, 1.000000000000000000 ) ) ;
#755 = ORIENTED_EDGE ( 'NONE', *, *, #110, .F. ) ;
#756 = PRODUCT ( '48VDC Plate', '48VDC Plate', '', ( #33 ) ) ;
#757 = EDGE_LOOP ( 'NONE', ( #458, #1041, #1089, #538 ) ) ;
#758 = ORIENTED_EDGE ( 'NONE', *, *, #813, .T. ) ;
#759 = DIRECTION ( 'NONE',  ( 1.000000000000000000, 0.000000000000000000, 0.000000000000000000 ) ) ;
#760 = AXIS2_PLACEMENT_3D ( 'NONE', #1322, #1013, #189 ) ;
#761 = ORIENTED_EDGE ( 'NONE', *, *, #1091, .T. ) ;
#762 = DIRECTION ( 'NONE',  ( 1.000000000000000000, 0.000000000000000000, 0.000000000000000000 ) ) ;
#763 = CARTESIAN_POINT ( 'NONE',  ( 2.070000000000071783, -157.2150000000000318, -1.500000000000000000 ) ) ;
#764 = ORIENTED_EDGE ( 'NONE', *, *, #1248, .T. ) ;
#765 = AXIS2_PLACEMENT_3D ( 'NONE', #175, #795, #1325 ) ;
#766 = AXIS2_PLACEMENT_3D ( 'NONE', #130, #931, #421 ) ;
#767 = LINE ( 'NONE', #146, #1026 ) ;
#768 = ORIENTED_EDGE ( 'NONE', *, *, #79, .T. ) ;
#769 = FACE_OUTER_BOUND ( 'NONE', #1277, .T. ) ;
#770 = ADVANCED_FACE ( 'NONE', ( #168 ), #368, .F. ) ;
#771 = DIRECTION ( 'NONE',  ( 1.000000000000000000, 0.000000000000000000, 0.000000000000000000 ) ) ;
#772 = ORIENTED_EDGE ( 'NONE', *, *, #690, .T. ) ;
#773 = AXIS2_PLACEMENT_3D ( 'NONE', #5, #230, #835 ) ;
#774 = DIRECTION ( 'NONE',  ( -1.000000000000000000, -2.928686001046147374E-14, 0.000000000000000000 ) ) ;
#775 = ORIENTED_EDGE ( 'NONE', *, *, #418, .T. ) ;
#776 = DIRECTION ( 'NONE',  ( 1.000000000000000000, 0.000000000000000000, 0.000000000000000000 ) ) ;
#777 = CARTESIAN_POINT ( 'NONE',  ( -129.3242157534729984, -171.1754006478065833, -1.500000000000000000 ) ) ;
#778 = EDGE_LOOP ( 'NONE', ( #375, #828 ) ) ;
#779 = ADVANCED_FACE ( 'NONE', ( #1074 ), #573, .T. ) ;
#780 = LINE ( 'NONE', #561, #100 ) ;
#781 = VERTEX_POINT ( 'NONE', #1290 ) ;
#782 = CARTESIAN_POINT ( 'NONE',  ( 2.070000000000071783, -157.2150000000000318, 1.500000000000000000 ) ) ;
#783 = AXIS2_PLACEMENT_3D ( 'NONE', #782, #371, #776 ) ;
#784 = DIRECTION ( 'NONE',  ( -0.000000000000000000, -0.000000000000000000, 1.000000000000000000 ) ) ;
#785 = ORIENTED_EDGE ( 'NONE', *, *, #161, .F. ) ;
#786 = DIRECTION ( 'NONE',  ( 1.000000000000000000, 0.000000000000000000, 0.000000000000000000 ) ) ;
#787 = VECTOR ( 'NONE', #702, 1000.000000000000000 ) ;
#788 = ORIENTED_EDGE ( 'NONE', *, *, #920, .F. ) ;
#789 = AXIS2_PLACEMENT_3D ( 'NONE', #260, #456, #362 ) ;
#790 = CARTESIAN_POINT ( 'NONE',  ( -3.929999999999928217, -103.7536284074074473, 1.500000000000000000 ) ) ;
#791 = EDGE_CURVE ( 'NONE', #253, #1170, #891, .T. ) ;
#792 = CARTESIAN_POINT ( 'NONE',  ( 3.856001000000070622, -77.21500000000003183, -1.500000000000000000 ) ) ;
#793 = ORIENTED_EDGE ( 'NONE', *, *, #308, .F. ) ;
#794 = AXIS2_PLACEMENT_3D ( 'NONE', #467, #1280, #929 ) ;
#795 = DIRECTION ( 'NONE',  ( -0.000000000000000000, -0.000000000000000000, 1.000000000000000000 ) ) ;
#796 = ORIENTED_EDGE ( 'NONE', *, *, #135, .F. ) ;
#797 = EDGE_CURVE ( 'NONE', #122, #1309, #615, .T. ) ;
#798 = CARTESIAN_POINT ( 'NONE',  ( -10.81999999999460904, -125.1150839783655471, 1.500000000000001332 ) ) ;
#799 = DIRECTION ( 'NONE',  ( 0.000000000000000000, 1.000000000000000000, 0.000000000000000000 ) ) ;
#800 = EDGE_LOOP ( 'NONE', ( #585, #1155 ) ) ;
#801 = CARTESIAN_POINT ( 'NONE',  ( -5.333712401217102439, -162.2150000000053751, -1.500000000000000000 ) ) ;
#802 = ORIENTED_EDGE ( 'NONE', *, *, #1100, .F. ) ;
#803 = CARTESIAN_POINT ( 'NONE',  ( -23.82467847084322798, -155.5994230076072142, -1.500000000000000000 ) ) ;
#804 = DIRECTION ( 'NONE',  ( -0.000000000000000000, -0.000000000000000000, 1.000000000000000000 ) ) ;
#805 = COLOUR_RGB ( '',0.7921568627450980005, 0.8196078431372548767, 0.9333333333333333481 ) ;
#806 = ADVANCED_FACE ( 'NONE', ( #1194 ), #1088, .F. ) ;
#807 = CARTESIAN_POINT ( 'NONE',  ( 7.070000000005405738, -59.37250000000002359, 1.500000000000000000 ) ) ;
#808 = ORIENTED_EDGE ( 'NONE', *, *, #731, .T. ) ;
#809 = CIRCLE ( 'NONE', #1044, 1.786000999999998839 ) ;
#810 = DIRECTION ( 'NONE',  ( 1.000000000000000000, 0.000000000000000000, 0.000000000000000000 ) ) ;
#811 = LINE ( 'NONE', #97, #529 ) ;
#812 = LINE ( 'NONE', #422, #1199 ) ;
#813 = EDGE_CURVE ( 'NONE', #681, #1284, #205, .T. ) ;
#814 = CARTESIAN_POINT ( 'NONE',  ( -28.90398986512725088, -145.9600000000000364, 1.500000000000001332 ) ) ;
#815 = EDGE_LOOP ( 'NONE', ( #139, #846 ) ) ;
#816 = DIRECTION ( 'NONE',  ( 1.000000000000000000, 0.000000000000000000, 0.000000000000000000 ) ) ;
#817 = VECTOR ( 'NONE', #207, 1000.000000000000000 ) ;
#818 = CARTESIAN_POINT ( 'NONE',  ( 7.070000000005405738, -59.37250000000002359, -1.500000000000000000 ) ) ;
#819 = CARTESIAN_POINT ( 'NONE',  ( -143.4300000000053785, -59.37250000000005201, -1.500000000000000000 ) ) ;
#820 = DIRECTION ( 'NONE',  ( 1.000000000000000000, 0.000000000000000000, 0.000000000000000000 ) ) ;
#821 = DIRECTION ( 'NONE',  ( -0.000000000000000000, -0.000000000000000000, 1.000000000000000000 ) ) ;
#822 = ORIENTED_EDGE ( 'NONE', *, *, #36, .F. ) ;
#823 = FACE_OUTER_BOUND ( 'NONE', #1073, .T. ) ;
#824 = DIRECTION ( 'NONE',  ( -0.000000000000000000, -0.000000000000000000, 1.000000000000000000 ) ) ;
#825 = AXIS2_PLACEMENT_3D ( 'NONE', #236, #535, #820 ) ;
#826 = DIRECTION ( 'NONE',  ( -0.000000000000000000, -0.000000000000000000, 1.000000000000000000 ) ) ;
#827 = FACE_OUTER_BOUND ( 'NONE', #224, .T. ) ;
#828 = ORIENTED_EDGE ( 'NONE', *, *, #457, .F. ) ;
#829 = EDGE_CURVE ( 'NONE', #1313, #669, #252, .T. ) ;
#830 = DIRECTION ( 'NONE',  ( -0.000000000000000000, -0.000000000000000000, 1.000000000000000000 ) ) ;
#831 = CARTESIAN_POINT ( 'NONE',  ( -143.4300000000053501, -167.8775000000054547, 1.500000000000000000 ) ) ;
#832 = AXIS2_PLACEMENT_3D ( 'NONE', #108, #696, #1104 ) ;
#833 = DIRECTION ( 'NONE',  ( 1.000000000000000000, 0.000000000000000000, 0.000000000000000000 ) ) ;
#834 = CARTESIAN_POINT ( 'NONE',  ( -15.03999999999457948, -77.11508397836554707, 1.500000000000001332 ) ) ;
#835 = DIRECTION ( 'NONE',  ( -1.000000000000000000, 0.000000000000000000, 0.000000000000000000 ) ) ;
#836 = ORIENTED_EDGE ( 'NONE', *, *, #1159, .T. ) ;
#837 = ORIENTED_EDGE ( 'NONE', *, *, #276, .T. ) ;
#838 = CARTESIAN_POINT ( 'NONE',  ( 7.070000000005405738, -162.2150000000050341, -1.500000000000000000 ) ) ;
#839 = ORIENTED_EDGE ( 'NONE', *, *, #1206, .T. ) ;
#840 = ADVANCED_FACE ( 'NONE', ( #1023, #186, #704, #1221, #1101, #1201, #916, #1214, #294, #504, #1318 ), #399, .T. ) ;
#841 = CIRCLE ( 'NONE', #1333, 2.109999999999998987 ) ;
#843 = EDGE_LOOP ( 'NONE', ( #785, #267, #245, #713 ) ) ;
#842 = VECTOR ( 'NONE', #715, 1000.000000000000000 ) ;
#844 = CARTESIAN_POINT ( 'NONE',  ( -10.81999999999460726, -77.11508397836554707, 1.500000000000001332 ) ) ;
#845 = DIRECTION ( 'NONE',  ( 1.000000000000000000, -2.913971193241880766E-15, 0.000000000000000000 ) ) ;
#846 = ORIENTED_EDGE ( 'NONE', *, *, #1228, .F. ) ;
#847 = CARTESIAN_POINT ( 'NONE',  ( -143.4300000000053785, -59.37250000000005201, 1.500000000000000000 ) ) ;
#848 = DIRECTION ( 'NONE',  ( -0.000000000000000000, -0.000000000000000000, 1.000000000000000000 ) ) ;
#849 = CYLINDRICAL_SURFACE ( 'NONE', #339, 2.109999999999991882 ) ;
#850 = VECTOR ( 'NONE', #105, 1000.000000000000000 ) ;
#851 = CIRCLE ( 'NONE', #272, 2.109999999999986997 ) ;
#852 = ORIENTED_EDGE ( 'NONE', *, *, #1211, .T. ) ;
#853 = FACE_OUTER_BOUND ( 'NONE', #642, .T. ) ;
#854 = EDGE_LOOP ( 'NONE', ( #796, #200 ) ) ;
#855 = CARTESIAN_POINT ( 'NONE',  ( 3.856001000000070622, -103.7536284074074473, -1.500000000000000000 ) ) ;
#856 = CIRCLE ( 'NONE', #680, 1.786001000000009276 ) ;
#857 = ADVANCED_FACE ( 'NONE', ( #1312 ), #80, .F. ) ;
#858 = CIRCLE ( 'NONE', #789, 2.109999999999986997 ) ;
#859 = EDGE_LOOP ( 'NONE', ( #672, #1202, #489, #379 ) ) ;
#860 = DIRECTION ( 'NONE',  ( -2.351569568383262162E-16, 1.000000000000000000, 0.000000000000000000 ) ) ;
#861 = ORIENTED_EDGE ( 'NONE', *, *, #692, .F. ) ;
#862 = CIRCLE ( 'NONE', #924, 4.762500000000002842 ) ;
#863 = VERTEX_POINT ( 'NONE', #997 ) ;
#864 = PRODUCT_RELATED_PRODUCT_CATEGORY ( 'part', '', ( #756 ) ) ;
#865 = VERTEX_POINT ( 'NONE', #801 ) ;
#866 = CARTESIAN_POINT ( 'NONE',  ( 2.307500000005405116, -157.4525000000051591, 1.500000000000000000 ) ) ;
#867 = ORIENTED_EDGE ( 'NONE', *, *, #829, .T. ) ;
#868 = DIRECTION ( 'NONE',  ( 1.000000000000000000, 0.000000000000000000, 0.000000000000000000 ) ) ;
#869 = LINE ( 'NONE', #42, #663 ) ;
#870 = ORIENTED_EDGE ( 'NONE', *, *, #475, .T. ) ;
#871 = CARTESIAN_POINT ( 'NONE',  ( -112.0521414152767790, -160.0582271066837734, -1.500000000000000000 ) ) ;
#872 = VECTOR ( 'NONE', #848, 1000.000000000000000 ) ;
#873 = EDGE_LOOP ( 'NONE', ( #107, #113, #701, #241 ) ) ;
#874 = EDGE_CURVE ( 'NONE', #274, #666, #120, .T. ) ;
#875 = FACE_BOUND ( 'NONE', #918, .T. ) ;
#876 = DIRECTION ( 'NONE',  ( -0.000000000000000000, 0.000000000000000000, -1.000000000000000000 ) ) ;
#877 = EDGE_LOOP ( 'NONE', ( #899, #369 ) ) ;
#878 = CARTESIAN_POINT ( 'NONE',  ( 7.070000000005405738, -162.2150000000050341, -1.500000000000000000 ) ) ;
#879 = ORIENTED_EDGE ( 'NONE', *, *, #976, .F. ) ;
#880 = DIRECTION ( 'NONE',  ( 1.000000000000000000, 0.000000000000000000, 0.000000000000000000 ) ) ;
#881 = ADVANCED_FACE ( 'NONE', ( #497 ), #700, .F. ) ;
#882 = CARTESIAN_POINT ( 'NONE',  ( -12.92999999999459426, -77.11508397836554707, -1.500000000000000000 ) ) ;
#883 = VERTEX_POINT ( 'NONE', #73 ) ;
#884 = VECTOR ( 'NONE', #564, 1000.000000000000000 ) ;
#885 = DIRECTION ( 'NONE',  ( -1.000000000000000000, 0.000000000000000000, 0.000000000000000000 ) ) ;
#886 = ORIENTED_EDGE ( 'NONE', *, *, #608, .T. ) ;
#887 = DIRECTION ( 'NONE',  ( -0.000000000000000000, -0.000000000000000000, 1.000000000000000000 ) ) ;
#888 = CARTESIAN_POINT ( 'NONE',  ( -24.63385203267212020, -155.2957271066837563, -1.500000000000000000 ) ) ;
#889 = ORIENTED_EDGE ( 'NONE', *, *, #1134, .F. ) ;
#890 = EDGE_CURVE ( 'NONE', #1161, #347, #965, .T. ) ;
#891 = LINE ( 'NONE', #1297, #55 ) ;
#892 = ORIENTED_EDGE ( 'NONE', *, *, #17, .F. ) ;
#893 = VERTEX_POINT ( 'NONE', #694 ) ;
#894 = CARTESIAN_POINT ( 'NONE',  ( 0.2839990000000720549, -103.7536284074074473, 1.500000000000000000 ) ) ;
#895 = DIRECTION ( 'NONE',  ( -0.000000000000000000, -0.000000000000000000, 1.000000000000000000 ) ) ;
#896 = ORIENTED_EDGE ( 'NONE', *, *, #690, .F. ) ;
#897 = ADVANCED_FACE ( 'NONE', ( #182 ), #388, .T. ) ;
#898 = DIRECTION ( 'NONE',  ( 1.000000000000000000, 0.000000000000000000, 0.000000000000000000 ) ) ;
#899 = ORIENTED_EDGE ( 'NONE', *, *, #461, .F. ) ;
#900 = FACE_BOUND ( 'NONE', #560, .T. ) ;
#901 = DIRECTION ( 'NONE',  ( -0.000000000000000000, -0.000000000000000000, 1.000000000000000000 ) ) ;
#902 = VERTEX_POINT ( 'NONE', #597 ) ;
#903 = VECTOR ( 'NONE', #269, 1000.000000000000000 ) ;
#904 = DIRECTION ( 'NONE',  ( 0.000000000000000000, 0.000000000000000000, -1.000000000000000000 ) ) ;
#905 = ORIENTED_EDGE ( 'NONE', *, *, #475, .F. ) ;
#906 = AXIS2_PLACEMENT_3D ( 'NONE', #1021, #824, #98 ) ;
#907 = ADVANCED_BREP_SHAPE_REPRESENTATION ( '48VDC Plate', ( #235, #1011 ), #688 ) ;
#908 = DIRECTION ( 'NONE',  ( -0.000000000000000000, -0.000000000000000000, 1.000000000000000000 ) ) ;
#909 = CARTESIAN_POINT ( 'NONE',  ( -3.929999999999928217, -103.7536284074074473, -1.500000000000000000 ) ) ;
#910 = EDGE_LOOP ( 'NONE', ( #1208, #937, #752, #946 ) ) ;
#911 = DIRECTION ( 'NONE',  ( -0.000000000000000000, -0.000000000000000000, 1.000000000000000000 ) ) ;
#912 = ORIENTED_EDGE ( 'NONE', *, *, #257, .T. ) ;
#913 = DIRECTION ( 'NONE',  ( -0.000000000000000000, -0.000000000000000000, 1.000000000000000000 ) ) ;
#914 = EDGE_CURVE ( 'NONE', #658, #434, #309, .T. ) ;
#915 = CARTESIAN_POINT ( 'NONE',  ( 2.070000000000071783, -157.2150000000000318, -1.500000000000000000 ) ) ;
#916 = FACE_BOUND ( 'NONE', #1057, .T. ) ;
#917 = VECTOR ( 'NONE', #154, 1000.000000000000000 ) ;
#918 = EDGE_LOOP ( 'NONE', ( #392, #250 ) ) ;
#919 = CARTESIAN_POINT ( 'NONE',  ( -25.49813963144960738, -160.0582271066837734, 1.500000000000000000 ) ) ;
#920 = EDGE_CURVE ( 'NONE', #1268, #1188, #624, .T. ) ;
#921 = DIRECTION ( 'NONE',  ( -0.000000000000000000, -0.000000000000000000, 1.000000000000000000 ) ) ;
#922 = DIRECTION ( 'NONE',  ( -0.000000000000000000, -0.000000000000000000, 1.000000000000000000 ) ) ;
#923 = ORIENTED_EDGE ( 'NONE', *, *, #1178, .T. ) ;
#924 = AXIS2_PLACEMENT_3D ( 'NONE', #1233, #151, #321 ) ;
#925 = DIRECTION ( 'NONE',  ( -0.000000000000000000, -0.000000000000000000, 1.000000000000000000 ) ) ;
#926 = VECTOR ( 'NONE', #185, 1000.000000000000000 ) ;
#927 = CARTESIAN_POINT ( 'NONE',  ( 0.2839990000000729431, -77.21500000000003183, -1.500000000000000000 ) ) ;
#928 = EDGE_CURVE ( 'NONE', #455, #1144, #1174, .T. ) ;
#929 = DIRECTION ( 'NONE',  ( 1.000000000000000000, 0.000000000000000000, 0.000000000000000000 ) ) ;
#930 = VERTEX_POINT ( 'NONE', #314 ) ;
#931 = DIRECTION ( 'NONE',  ( -0.000000000000000000, 0.000000000000000000, -1.000000000000000000 ) ) ;
#932 = CARTESIAN_POINT ( 'NONE',  ( -31.01398986512723965, -145.9600000000000364, 1.500000000000001332 ) ) ;
#933 = CARTESIAN_POINT ( 'NONE',  ( -121.4039898651272438, -60.96000000000002927, 1.500000000000001332 ) ) ;
#934 = VECTOR ( 'NONE', #714, 1000.000000000000000 ) ;
#935 = FACE_OUTER_BOUND ( 'NONE', #1191, .T. ) ;
#936 = ADVANCED_FACE ( 'NONE', ( #1003 ), #1207, .F. ) ;
#937 = ORIENTED_EDGE ( 'NONE', *, *, #1255, .T. ) ;
#938 = DIRECTION ( 'NONE',  ( 1.000000000000000000, 2.351569568383262162E-16, -0.000000000000000000 ) ) ;
#939 = VERTEX_POINT ( 'NONE', #807 ) ;
#940 = AXIS2_PLACEMENT_3D ( 'NONE', #1094, #1015, #586 ) ;
#941 = DIRECTION ( 'NONE',  ( 1.000000000000000000, 0.000000000000000000, 0.000000000000000000 ) ) ;
#942 = VECTOR ( 'NONE', #830, 1000.000000000000000 ) ;
#943 = CARTESIAN_POINT ( 'NONE',  ( 0.2839990000000724990, -77.21500000000003183, 1.500000000000000000 ) ) ;
#944 = CARTESIAN_POINT ( 'NONE',  ( 2.307500000005405116, -59.37250000000003070, -1.500000000000000000 ) ) ;
#945 = ORIENTED_EDGE ( 'NONE', *, *, #373, .T. ) ;
#946 = ORIENTED_EDGE ( 'NONE', *, *, #721, .F. ) ;
#947 = LINE ( 'NONE', #351, #1004 ) ;
#948 = AXIS2_PLACEMENT_3D ( 'NONE', #1129, #385, #668 ) ;
#949 = ADVANCED_FACE ( 'NONE', ( #1240 ), #1034, .F. ) ;
#950 = CARTESIAN_POINT ( 'NONE',  ( -6.197999999994659781, -162.2150000000054035, -1.500000000000000000 ) ) ;
#951 = DIRECTION ( 'NONE',  ( 0.000000000000000000, -0.000000000000000000, 1.000000000000000000 ) ) ;
#952 = ORIENTED_EDGE ( 'NONE', *, *, #490, .T. ) ;
#953 = CARTESIAN_POINT ( 'NONE',  ( -7.007173561823625718, -161.9113040990819457, -1.500000000000000000 ) ) ;
#954 = EDGE_LOOP ( 'NONE', ( #1305, #687, #735, #43 ) ) ;
#955 = ADVANCED_FACE ( 'NONE', ( #433 ), #1143, .T. ) ;
#956 = DIRECTION ( 'NONE',  ( -0.000000000000000000, -0.000000000000000000, 1.000000000000000000 ) ) ;
#957 = EDGE_LOOP ( 'NONE', ( #793, #1251 ) ) ;
#958 = PLANE ( 'NONE',  #1215 ) ;
#959 = EDGE_CURVE ( 'NONE', #434, #209, #326, .T. ) ;
#960 = CIRCLE ( 'NONE', #254, 1.786000999999998839 ) ;
#961 = AXIS2_PLACEMENT_3D ( 'NONE', #871, #266, #553 ) ;
#962 = VERTEX_POINT ( 'NONE', #12 ) ;
#963 = CARTESIAN_POINT ( 'NONE',  ( 2.070000000000071783, -77.21500000000003183, 1.500000000000000000 ) ) ;
#964 = EDGE_LOOP ( 'NONE', ( #464, #129, #249, #912 ) ) ;
#965 = CIRCLE ( 'NONE', #1049, 1.786001000000009276 ) ;
#966 = CYLINDRICAL_SURFACE ( 'NONE', #773, 4.762500000000002842 ) ;
#967 = CIRCLE ( 'NONE', #41, 1.786000999999998839 ) ;
#968 = VERTEX_POINT ( 'NONE', #426 ) ;
#969 = ADVANCED_FACE ( 'NONE', ( #935 ), #966, .T. ) ;
#970 = FACE_OUTER_BOUND ( 'NONE', #757, .T. ) ;
#971 = EDGE_CURVE ( 'NONE', #434, #982, #223, .T. ) ;
#972 = ORIENTED_EDGE ( 'NONE', *, *, #545, .T. ) ;
#973 = DIRECTION ( 'NONE',  ( -0.000000000000000000, -0.000000000000000000, 1.000000000000000000 ) ) ;
#974 = CARTESIAN_POINT ( 'NONE',  ( -10.81999999999459483, -77.11508397836554707, -1.500000000000000000 ) ) ;
#975 = ORIENTED_EDGE ( 'NONE', *, *, #1332, .F. ) ;
#976 = EDGE_CURVE ( 'NONE', #1309, #122, #40, .T. ) ;
#977 = DIRECTION ( 'NONE',  ( -0.000000000000000000, -0.000000000000000000, 1.000000000000000000 ) ) ;
#978 = AXIS2_PLACEMENT_3D ( 'NONE', #358, #61, #149 ) ;
#979 = ORIENTED_EDGE ( 'NONE', *, *, #890, .T. ) ;
#980 = FACE_OUTER_BOUND ( 'NONE', #496, .T. ) ;
#981 = DIRECTION ( 'NONE',  ( 0.000000000000000000, 1.000000000000000000, 0.000000000000000000 ) ) ;
#982 = VERTEX_POINT ( 'NONE', #1250 ) ;
#983 = CIRCLE ( 'NONE', #78, 1.786000999999998839 ) ;
#984 = CARTESIAN_POINT ( 'NONE',  ( -138.6675000000053615, -167.8775000000054547, 1.500000000000000000 ) ) ;
#985 = ORIENTED_EDGE ( 'NONE', *, *, #96, .T. ) ;
#986 = DIRECTION ( 'NONE',  ( -0.000000000000000000, -0.000000000000000000, 1.000000000000000000 ) ) ;
#987 = PLANE ( 'NONE',  #285 ) ;
#988 = EDGE_CURVE ( 'NONE', #1188, #367, #869, .T. ) ;
#989 = ORIENTED_EDGE ( 'NONE', *, *, #1185, .F. ) ;
#990 = AXIS2_PLACEMENT_3D ( 'NONE', #944, #876, #845 ) ;
#991 = DIRECTION ( 'NONE',  ( -0.000000000000000000, -0.000000000000000000, 1.000000000000000000 ) ) ;
#992 = ORIENTED_EDGE ( 'NONE', *, *, #1338, .T. ) ;
#993 = CARTESIAN_POINT ( 'NONE',  ( -138.6675000000053615, -172.6400000000054433, -1.500000000000000000 ) ) ;
#994 = EDGE_CURVE ( 'NONE', #968, #562, #1121, .T. ) ;
#995 = DIRECTION ( 'NONE',  ( 1.000000000000000000, 0.000000000000000000, 0.000000000000000000 ) ) ;
#996 = EDGE_LOOP ( 'NONE', ( #747, #356, #1282, #1016 ) ) ;
#997 = CARTESIAN_POINT ( 'NONE',  ( -15.03999999999459547, -125.1150839783655471, -1.500000000000000000 ) ) ;
#998 = VERTEX_POINT ( 'NONE', #329 ) ;
#999 = DIRECTION ( 'NONE',  ( -0.000000000000000000, -0.000000000000000000, 1.000000000000000000 ) ) ;
#1000 = CARTESIAN_POINT ( 'NONE',  ( 0.2839990000000729431, -103.7536284074074473, -1.500000000000000000 ) ) ;
#1001 = VERTEX_POINT ( 'NONE', #459 ) ;
#1002 = AXIS2_PLACEMENT_3D ( 'NONE', #814, #922, #99 ) ;
#1003 = FACE_OUTER_BOUND ( 'NONE', #964, .T. ) ;
#1004 = VECTOR ( 'NONE', #450, 1000.000000000000000 ) ;
#1005 = ORIENTED_EDGE ( 'NONE', *, *, #1083, .F. ) ;
#1006 = DIRECTION ( 'NONE',  ( -0.000000000000000000, 0.000000000000000000, -1.000000000000000000 ) ) ;
#1007 = DIRECTION ( 'NONE',  ( -0.000000000000000000, -0.000000000000000000, 1.000000000000000000 ) ) ;
#1008 = CARTESIAN_POINT ( 'NONE',  ( 2.070000000000071783, -103.7536284074074473, 1.500000000000000000 ) ) ;
#1009 = EDGE_CURVE ( 'NONE', #681, #81, #118, .T. ) ;
#1010 = ORIENTED_EDGE ( 'NONE', *, *, #8, .F. ) ;
#1011 = AXIS2_PLACEMENT_3D ( 'NONE', #228, #125, #868 ) ;
#1012 = DIRECTION ( 'NONE',  ( 1.000000000000000000, 0.000000000000000000, 0.000000000000000000 ) ) ;
#1013 = DIRECTION ( 'NONE',  ( -0.000000000000000000, -0.000000000000000000, 1.000000000000000000 ) ) ;
#1014 = DIRECTION ( 'NONE',  ( -0.000000000000000000, 0.000000000000000000, -1.000000000000000000 ) ) ;
#1015 = DIRECTION ( 'NONE',  ( 0.000000000000000000, -0.000000000000000000, 1.000000000000000000 ) ) ;
#1016 = ORIENTED_EDGE ( 'NONE', *, *, #1106, .F. ) ;
#1017 = ADVANCED_FACE ( 'NONE', ( #336 ), #216, .F. ) ;
#1018 = DIRECTION ( 'NONE',  ( 1.000000000000000000, 0.000000000000000000, -0.000000000000000000 ) ) ;
#1019 = PRESENTATION_STYLE_ASSIGNMENT (( #607 ) ) ;
#1020 = AXIS2_PLACEMENT_3D ( 'NONE', #177, #1077, #762 ) ;
#1021 = CARTESIAN_POINT ( 'NONE',  ( -121.4039898651272438, -60.96000000000002927, 1.500000000000000000 ) ) ;
#1022 = CIRCLE ( 'NONE', #444, 4.762500000000002842 ) ;
#1023 = FACE_BOUND ( 'NONE', #957, .T. ) ;
#1024 = ORIENTED_EDGE ( 'NONE', *, *, #1083, .T. ) ;
#1025 = CYLINDRICAL_SURFACE ( 'NONE', #832, 1.786000999999999284 ) ;
#1026 = VECTOR ( 'NONE', #1171, 1000.000000000000000 ) ;
#1027 = CARTESIAN_POINT ( 'NONE',  ( -15.03999999999458836, -125.1150839783655471, 1.500000000000000000 ) ) ;
#1028 = CARTESIAN_POINT ( 'NONE',  ( -132.7600937442102804, -167.8775000000054547, 1.500000000000000000 ) ) ;
#1029 = VERTEX_POINT ( 'NONE', #1066 ) ;
#1030 = CARTESIAN_POINT ( 'NONE',  ( 2.070000000000071783, -103.7536284074074473, 1.500000000000000000 ) ) ;
#1031 = DIRECTION ( 'NONE',  ( 0.000000000000000000, -0.000000000000000000, 1.000000000000000000 ) ) ;
#1032 = CARTESIAN_POINT ( 'NONE',  ( -136.6439989999999227, -167.6400000000000432, 1.500000000000000000 ) ) ;
#1033 = EDGE_CURVE ( 'NONE', #1298, #982, #862, .T. ) ;
#1034 = CYLINDRICAL_SURFACE ( 'NONE', #600, 2.110000000000000764 ) ;
#1035 = ORIENTED_EDGE ( 'NONE', *, *, #446, .T. ) ;
#1036 = DIRECTION ( 'NONE',  ( 0.000000000000000000, -0.000000000000000000, 1.000000000000000000 ) ) ;
#1037 = CARTESIAN_POINT ( 'NONE',  ( 7.070000000005405738, -162.2150000000050341, 1.500000000000000000 ) ) ;
#1038 = FACE_OUTER_BOUND ( 'NONE', #264, .T. ) ;
#1039 = AXIS2_PLACEMENT_3D ( 'NONE', #577, #667, #54 ) ;
#1040 = DIRECTION ( 'NONE',  ( -0.000000000000000000, -0.000000000000000000, 1.000000000000000000 ) ) ;
#1041 = ORIENTED_EDGE ( 'NONE', *, *, #641, .T. ) ;
#1042 = ORIENTED_EDGE ( 'NONE', *, *, #153, .F. ) ;
#1043 = LINE ( 'NONE', #838, #320 ) ;
#1044 = AXIS2_PLACEMENT_3D ( 'NONE', #679, #977, #469 ) ;
#1045 = DIRECTION ( 'NONE',  ( -0.000000000000000000, -0.000000000000000000, 1.000000000000000000 ) ) ;
#1046 = VERTEX_POINT ( 'NONE', #974 ) ;
#1047 = EDGE_CURVE ( 'NONE', #629, #552, #453, .T. ) ;
#1048 = CARTESIAN_POINT ( 'NONE',  ( -12.92999999999459426, -77.11508397836554707, 1.500000000000000000 ) ) ;
#1049 = AXIS2_PLACEMENT_3D ( 'NONE', #491, #91, #898 ) ;
#1050 = DIRECTION ( 'NONE',  ( -0.000000000000000000, -0.000000000000000000, 1.000000000000000000 ) ) ;
#1051 = ORIENTED_EDGE ( 'NONE', *, *, #692, .T. ) ;
#1052 = LINE ( 'NONE', #114, #1169 ) ;
#1053 = CARTESIAN_POINT ( 'NONE',  ( -112.0521414152767790, -160.0582271066837734, 1.500000000000000000 ) ) ;
#1054 = VECTOR ( 'NONE', #68, 1000.000000000000000 ) ;
#1055 = ORIENTED_EDGE ( 'NONE', *, *, #498, .F. ) ;
#1056 = LINE ( 'NONE', #28, #141 ) ;
#1057 = EDGE_LOOP ( 'NONE', ( #30, #1172 ) ) ;
#1058 = EDGE_CURVE ( 'NONE', #1298, #656, #1059, .T. ) ;
#1059 = LINE ( 'NONE', #1339, #501 ) ;
#1060 = VERTEX_POINT ( 'NONE', #360 ) ;
#1061 = ADVANCED_FACE ( 'NONE', ( #1168 ), #258, .F. ) ;
#1062 = VERTEX_POINT ( 'NONE', #417 ) ;
#1063 = DIRECTION ( 'NONE',  ( -0.000000000000000000, -0.000000000000000000, 1.000000000000000000 ) ) ;
#1064 = ORIENTED_EDGE ( 'NONE', *, *, #1331, .T. ) ;
#1065 = DIRECTION ( 'NONE',  ( 1.000000000000000000, 0.000000000000000000, 0.000000000000000000 ) ) ;
#1066 = CARTESIAN_POINT ( 'NONE',  ( -140.2160009999999488, -72.39000000000004320, 1.500000000000000000 ) ) ;
#1067 = ORIENTED_EDGE ( 'NONE', *, *, #1149, .T. ) ;
#1068 = ADVANCED_FACE ( 'NONE', ( #827 ), #726, .F. ) ;
#1069 = CARTESIAN_POINT ( 'NONE',  ( -10.81999999999459483, -125.1150839783655471, -1.500000000000000000 ) ) ;
#1070 = ORIENTED_EDGE ( 'NONE', *, *, #623, .F. ) ;
#1071 = CARTESIAN_POINT ( 'NONE',  ( -123.5139898651272432, -60.96000000000002927, 1.500000000000000000 ) ) ;
#1072 = DIRECTION ( 'NONE',  ( -0.000000000000000000, 0.000000000000000000, -1.000000000000000000 ) ) ;
#1073 = EDGE_LOOP ( 'NONE', ( #737, #695, #316, #52 ) ) ;
#1074 = FACE_OUTER_BOUND ( 'NONE', #996, .T. ) ;
#1075 = AXIS2_PLACEMENT_3D ( 'NONE', #1053, #214, #117 ) ;
#1076 = ORIENTED_EDGE ( 'NONE', *, *, #1058, .T. ) ;
#1077 = DIRECTION ( 'NONE',  ( -0.000000000000000000, -0.000000000000000000, 1.000000000000000000 ) ) ;
#1078 = DIRECTION ( 'NONE',  ( -0.000000000000000000, -0.000000000000000000, 1.000000000000000000 ) ) ;
#1079 = ORIENTED_EDGE ( 'NONE', *, *, #178, .T. ) ;
#1080 = AXIS2_PLACEMENT_3D ( 'NONE', #138, #441, #2 ) ;
#1081 = CARTESIAN_POINT ( 'NONE',  ( -138.6675000000053615, -172.6400000000054433, 1.500000000000000000 ) ) ;
#1082 = VERTEX_POINT ( 'NONE', #1000 ) ;
#1083 = EDGE_CURVE ( 'NONE', #622, #169, #1098, .T. ) ;
#1084 = FACE_BOUND ( 'NONE', #499, .T. ) ;
#1085 = LINE ( 'NONE', #391, #431 ) ;
#1086 = CIRCLE ( 'NONE', #519, 1.786001000000009276 ) ;
#1087 = VECTOR ( 'NONE', #1127, 1000.000000000000000 ) ;
#1088 = CYLINDRICAL_SURFACE ( 'NONE', #140, 1.786000999999999284 ) ;
#1089 = ORIENTED_EDGE ( 'NONE', *, *, #1100, .T. ) ;
#1090 = DIRECTION ( 'NONE',  ( 0.000000000000000000, -0.000000000000000000, 1.000000000000000000 ) ) ;
#1091 = EDGE_CURVE ( 'NONE', #303, #656, #215, .T. ) ;
#1092 = CARTESIAN_POINT ( 'NONE',  ( -121.4039898651272438, -60.96000000000002927, 1.500000000000001332 ) ) ;
#1093 = ORIENTED_EDGE ( 'NONE', *, *, #797, .T. ) ;
#1094 = CARTESIAN_POINT ( 'NONE',  ( 0.000000000000000000, 0.000000000000000000, 1.500000000000000000 ) ) ;
#1095 = ORIENTED_EDGE ( 'NONE', *, *, #418, .F. ) ;
#1096 = DIRECTION ( 'NONE',  ( -0.6924725769661176367, -0.7214441975301375543, 0.000000000000000000 ) ) ;
#1097 = CLOSED_SHELL ( 'NONE', ( #1061, #1270, #193, #265, #697, #213, #53, #806, #481, #654, #1068, #1314, #648, #454, #840, #380, #365, #936, #770, #357, #1223, #857, #1204, #1117, #1246, #739, #246, #71, #897, #969, #779, #955, #678, #881, #10, #596, #949, #1017 ) ) ;
#1098 = LINE ( 'NONE', #676, #370 ) ;
#1099 = EDGE_CURVE ( 'NONE', #234, #1108, #1153, .T. ) ;
#1100 = EDGE_CURVE ( 'NONE', #1029, #81, #582, .T. ) ;
#1101 = FACE_OUTER_BOUND ( 'NONE', #1139, .T. ) ;
#1102 = AXIS2_PLACEMENT_3D ( 'NONE', #919, #1006, #518 ) ;
#1103 = ORIENTED_EDGE ( 'NONE', *, *, #437, .F. ) ;
#1104 = DIRECTION ( 'NONE',  ( 1.000000000000000000, 0.000000000000000000, 0.000000000000000000 ) ) ;
#1105 = CARTESIAN_POINT ( 'NONE',  ( -132.7600937442102804, -172.6400000000054433, 1.500000000000000000 ) ) ;
#1106 = EDGE_CURVE ( 'NONE', #666, #303, #292, .T. ) ;
#1107 = DIRECTION ( 'NONE',  ( 1.000000000000000000, 0.000000000000000000, 0.000000000000000000 ) ) ;
#1108 = VERTEX_POINT ( 'NONE', #1190 ) ;
#1109 = CARTESIAN_POINT ( 'NONE',  ( -12.92999999999459426, -77.11508397836554707, -1.500000000000000000 ) ) ;
#1110 = DIRECTION ( 'NONE',  ( -0.000000000000000000, -0.000000000000000000, 1.000000000000000000 ) ) ;
#1111 = FACE_OUTER_BOUND ( 'NONE', #27, .T. ) ;
#1112 = CARTESIAN_POINT ( 'NONE',  ( -138.6675000000053615, -167.8775000000054547, 1.500000000000000000 ) ) ;
#1113 = EDGE_LOOP ( 'NONE', ( #879, #87 ) ) ;
#1114 = LINE ( 'NONE', #296, #934 ) ;
#1115 = FILL_AREA_STYLE ('',( #1218 ) ) ;
#1116 = AXIS2_PLACEMENT_3D ( 'NONE', #305, #1110, #89 ) ;
#1117 = ADVANCED_FACE ( 'NONE', ( #179 ), #571, .F. ) ;
#1118 = DIRECTION ( 'NONE',  ( 0.000000000000000000, 1.000000000000000000, 0.000000000000000000 ) ) ;
#1119 = VECTOR ( 'NONE', #1247, 1000.000000000000000 ) ;
#1120 = LINE ( 'NONE', #20, #850 ) ;
#1121 = LINE ( 'NONE', #522, #817 ) ;
#1122 = ORIENTED_EDGE ( 'NONE', *, *, #920, .T. ) ;
#1123 = CIRCLE ( 'NONE', #766, 4.762500000000002842 ) ;
#1124 = FACE_BOUND ( 'NONE', #1234, .T. ) ;
#1125 = ORIENTED_EDGE ( 'NONE', *, *, #221, .F. ) ;
#1126 = EDGE_CURVE ( 'NONE', #101, #49, #165, .T. ) ;
#1127 = DIRECTION ( 'NONE',  ( 1.000000000000000000, 0.000000000000000000, 0.000000000000000000 ) ) ;
#1128 = ORIENTED_EDGE ( 'NONE', *, *, #1033, .T. ) ;
#1129 = CARTESIAN_POINT ( 'NONE',  ( 7.070000000005405738, -172.6400000000054433, 1.500000000000000000 ) ) ;
#1130 = VERTEX_POINT ( 'NONE', #495 ) ;
#1131 = AXIS2_PLACEMENT_3D ( 'NONE', #172, #1072, #995 ) ;
#1132 = CARTESIAN_POINT ( 'NONE',  ( -7.007173561823625718, -161.9113040990819457, 1.500000000000000000 ) ) ;
#1133 = PRODUCT_DEFINITION_FORMATION_WITH_SPECIFIED_SOURCE ( 'ANY', '', #756, .NOT_KNOWN. ) ;
#1134 = EDGE_CURVE ( 'NONE', #653, #7, #349, .T. ) ;
#1135 = FACE_OUTER_BOUND ( 'NONE', #638, .T. ) ;
#1136 = DIRECTION ( 'NONE',  ( -0.9362318318270996809, 0.3513829208622317180, 0.000000000000000000 ) ) ;
#1137 = LINE ( 'NONE', #222, #160 ) ;
#1138 = CARTESIAN_POINT ( 'NONE',  ( -28.90398986512725088, -145.9600000000000364, 1.500000000000000000 ) ) ;
#1139 = EDGE_LOOP ( 'NONE', ( #333, #605, #183, #1051, #923, #287, #677, #476, #23, #37, #992, #972, #1319, #567, #407, #1301 ) ) ;
#1140 = CARTESIAN_POINT ( 'NONE',  ( 7.070000000005405738, -157.4525000000051591, -1.500000000000000000 ) ) ;
#1141 = LINE ( 'NONE', #1032, #1119 ) ;
#1142 = EDGE_CURVE ( 'NONE', #1262, #468, #128, .T. ) ;
#1143 = CYLINDRICAL_SURFACE ( 'NONE', #13, 4.762500000000002842 ) ;
#1144 = VERTEX_POINT ( 'NONE', #1197 ) ;
#1145 = CARTESIAN_POINT ( 'NONE',  ( -138.4299999999999500, -167.6400000000000432, -1.500000000000000000 ) ) ;
#1146 = AXIS2_PLACEMENT_3D ( 'NONE', #1271, #1179, #671 ) ;
#1147 = VECTOR ( 'NONE', #390, 1000.000000000000000 ) ;
#1148 = CARTESIAN_POINT ( 'NONE',  ( -136.6439989999999227, -72.39000000000004320, 1.500000000000000000 ) ) ;
#1149 = EDGE_CURVE ( 'NONE', #1046, #440, #841, .T. ) ;
#1150 = ORIENTED_EDGE ( 'NONE', *, *, #403, .F. ) ;
#1151 = DIRECTION ( 'NONE',  ( 1.000000000000000000, 0.000000000000000000, 0.000000000000000000 ) ) ;
#1152 = EDGE_LOOP ( 'NONE', ( #1055, #905, #352, #662 ) ) ;
#1153 = CIRCLE ( 'NONE', #559, 2.109999999999986997 ) ;
#1154 = DIRECTION ( 'NONE',  ( 1.000000000000000000, 0.000000000000000000, 0.000000000000000000 ) ) ;
#1155 = ORIENTED_EDGE ( 'NONE', *, *, #26, .F. ) ;
#1156 = CARTESIAN_POINT ( 'NONE',  ( 7.070000000005405738, -59.37250000000002359, 1.500000000000000000 ) ) ;
#1157 = APPLICATION_CONTEXT ( 'automotive_design' ) ;
#1158 = ORIENTED_EDGE ( 'NONE', *, *, #988, .T. ) ;
#1159 = EDGE_CURVE ( 'NONE', #7, #122, #1085, .T. ) ;
#1160 = EDGE_CURVE ( 'NONE', #930, #617, #578, .T. ) ;
#1161 = VERTEX_POINT ( 'NONE', #1288 ) ;
#1162 = AXIS2_PLACEMENT_3D ( 'NONE', #790, #999, #1065 ) ;
#1163 = ORIENTED_EDGE ( 'NONE', *, *, #623, .T. ) ;
#1164 = DIRECTION ( 'NONE',  ( -0.000000000000000000, -0.000000000000000000, -1.000000000000000000 ) ) ;
#1165 = ORIENTED_EDGE ( 'NONE', *, *, #721, .T. ) ;
#1166 = LINE ( 'NONE', #75, #199 ) ;
#1167 = EDGE_CURVE ( 'NONE', #863, #720, #708, .T. ) ;
#1168 = FACE_OUTER_BOUND ( 'NONE', #243, .T. ) ;
#1169 = VECTOR ( 'NONE', #244, 1000.000000000000000 ) ;
#1170 = VERTEX_POINT ( 'NONE', #777 ) ;
#1171 = DIRECTION ( 'NONE',  ( 1.000000000000000000, 0.000000000000000000, 0.000000000000000000 ) ) ;
#1172 = ORIENTED_EDGE ( 'NONE', *, *, #373, .F. ) ;
#1173 = DIRECTION ( 'NONE',  ( -0.000000000000000000, -0.000000000000000000, 1.000000000000000000 ) ) ;
#1174 = CIRCLE ( 'NONE', #1286, 2.110000000000000764 ) ;
#1175 = CARTESIAN_POINT ( 'NONE',  ( -138.6675000000053615, -172.6400000000054433, 1.500000000000000000 ) ) ;
#1176 = AXIS2_PLACEMENT_3D ( 'NONE', #614, #116, #103 ) ;
#1177 = ORIENTED_EDGE ( 'NONE', *, *, #753, .T. ) ;
#1178 = EDGE_CURVE ( 'NONE', #930, #939, #1183, .T. ) ;
#1179 = DIRECTION ( 'NONE',  ( -0.000000000000000000, -0.000000000000000000, 1.000000000000000000 ) ) ;
#1180 = UNCERTAINTY_MEASURE_WITH_UNIT (LENGTH_MEASURE( 1.000000000000000082E-05 ), #1267, 'distance_accuracy_value', 'NONE');
#1181 = EDGE_LOOP ( 'NONE', ( #35, #337, #1076, #852 ) ) ;
#1182 = FACE_OUTER_BOUND ( 'NONE', #70, .T. ) ;
#1183 = LINE ( 'NONE', #584, #171 ) ;
#1184 = ORIENTED_EDGE ( 'NONE', *, *, #1185, .T. ) ;
#1185 = EDGE_CURVE ( 'NONE', #81, #1029, #1086, .T. ) ;
#1186 = LINE ( 'NONE', #686, #917 ) ;
#1187 = AXIS2_PLACEMENT_3D ( 'NONE', #533, #341, #430 ) ;
#1188 = VERTEX_POINT ( 'NONE', #792 ) ;
#1189 = DIRECTION ( 'NONE',  ( -0.000000000000000000, -0.000000000000000000, 1.000000000000000000 ) ) ;
#1190 = CARTESIAN_POINT ( 'NONE',  ( -123.5139898651272290, -60.96000000000002927, 1.500000000000001332 ) ) ;
#1191 = EDGE_LOOP ( 'NONE', ( #822, #382, #1272, #6 ) ) ;
#1192 = AXIS2_PLACEMENT_3D ( 'NONE', #984, #59, #885 ) ;
#1193 = EDGE_CURVE ( 'NONE', #544, #669, #1205, .T. ) ;
#1194 = FACE_OUTER_BOUND ( 'NONE', #1327, .T. ) ;
#1195 = EDGE_LOOP ( 'NONE', ( #723, #14, #363, #1274 ) ) ;
#1196 = DIRECTION ( 'NONE',  ( 1.000000000000000000, 0.000000000000000000, 0.000000000000000000 ) ) ;
#1197 = CARTESIAN_POINT ( 'NONE',  ( -123.5139898651272432, -60.96000000000002927, -1.500000000000000000 ) ) ;
#1198 = ORIENTED_EDGE ( 'NONE', *, *, #1307, .F. ) ;
#1199 = VECTOR ( 'NONE', #520, 1000.000000000000000 ) ;
#1200 = VECTOR ( 'NONE', #804, 1000.000000000000000 ) ;
#1201 = FACE_BOUND ( 'NONE', #485, .T. ) ;
#1202 = ORIENTED_EDGE ( 'NONE', *, *, #300, .F. ) ;
#1203 = CARTESIAN_POINT ( 'NONE',  ( -25.49813963144960738, -155.2957271066837563, 1.500000000000000000 ) ) ;
#1204 = ADVANCED_FACE ( 'NONE', ( #83 ), #987, .F. ) ;
#1205 = LINE ( 'NONE', #595, #1265 ) ;
#1206 = EDGE_CURVE ( 'NONE', #389, #781, #812, .T. ) ;
#1207 = CYLINDRICAL_SURFACE ( 'NONE', #148, 1.786000999999999284 ) ;
#1208 = ORIENTED_EDGE ( 'NONE', *, *, #396, .F. ) ;
#1209 = FACE_BOUND ( 'NONE', #428, .T. ) ;
#1210 = AXIS2_PLACEMENT_3D ( 'NONE', #1293, #1173, #157 ) ;
#1211 = EDGE_CURVE ( 'NONE', #656, #274, #625, .T. ) ;
#1212 = CARTESIAN_POINT ( 'NONE',  ( -112.0521414152767790, -155.2957271066837563, -1.500000000000000000 ) ) ;
#1213 = AXIS2_PLACEMENT_3D ( 'NONE', #878, #477, #774 ) ;
#1214 = FACE_BOUND ( 'NONE', #854, .T. ) ;
#1215 = AXIS2_PLACEMENT_3D ( 'NONE', #531, #938, #860 ) ;
#1216 = ORIENTED_EDGE ( 'NONE', *, *, #791, .T. ) ;
#1217 = DIRECTION ( 'NONE',  ( 0.000000000000000000, -0.000000000000000000, 1.000000000000000000 ) ) ;
#1218 = FILL_AREA_STYLE_COLOUR ( '', #805 ) ;
#1219 = CYLINDRICAL_SURFACE ( 'NONE', #328, 1.786001000000009276 ) ;
#1220 = AXIS2_PLACEMENT_3D ( 'NONE', #888, #981, #1308 ) ;
#1221 = FACE_BOUND ( 'NONE', #877, .T. ) ;
#1222 = ORIENTED_EDGE ( 'NONE', *, *, #161, .T. ) ;
#1223 = ADVANCED_FACE ( 'NONE', ( #1111 ), #1219, .F. ) ;
#1224 = CARTESIAN_POINT ( 'NONE',  ( -28.90398986512725088, -145.9600000000000364, -1.500000000000000000 ) ) ;
#1225 = DIRECTION ( 'NONE',  ( 1.000000000000000000, 0.000000000000000000, 0.000000000000000000 ) ) ;
#1226 = LINE ( 'NONE', #1105, #1266 ) ;
#1227 = DIRECTION ( 'NONE',  ( 1.000000000000000000, 0.000000000000000000, 0.000000000000000000 ) ) ;
#1228 = EDGE_CURVE ( 'NONE', #176, #163, #664, .T. ) ;
#1229 = ORIENTED_EDGE ( 'NONE', *, *, #515, .F. ) ;
#1230 = DIRECTION ( 'NONE',  ( 0.000000000000000000, 1.000000000000000000, 0.000000000000000000 ) ) ;
#1231 = AXIS2_PLACEMENT_3D ( 'NONE', #1285, #383, #583 ) ;
#1232 = LINE ( 'NONE', #319, #1087 ) ;
#1233 = CARTESIAN_POINT ( 'NONE',  ( -138.6675000000053899, -59.37250000000005201, -1.500000000000000000 ) ) ;
#1234 = EDGE_LOOP ( 'NONE', ( #646, #1177 ) ) ;
#1235 = VECTOR ( 'NONE', #1036, 1000.000000000000000 ) ;
#1236 = DIRECTION ( 'NONE',  ( 1.000000000000000000, 0.000000000000000000, 0.000000000000000000 ) ) ;
#1237 = DIRECTION ( 'NONE',  ( 1.000000000000000000, 0.000000000000000000, 0.000000000000000000 ) ) ;
#1238 = CYLINDRICAL_SURFACE ( 'NONE', #136, 4.762500000000000178 ) ;
#1239 = CARTESIAN_POINT ( 'NONE',  ( 3.856001000000071066, -103.7536284074074473, 1.500000000000000000 ) ) ;
#1240 = FACE_OUTER_BOUND ( 'NONE', #299, .T. ) ;
#1241 = ORIENTED_EDGE ( 'NONE', *, *, #545, .F. ) ;
#1242 = VECTOR ( 'NONE', #288, 1000.000000000000000 ) ;
#1243 = ORIENTED_EDGE ( 'NONE', *, *, #26, .T. ) ;
#1244 = CARTESIAN_POINT ( 'NONE',  ( -115.4880194060140468, -156.7603264588826448, -1.500000000000000000 ) ) ;
#1245 = CIRCLE ( 'NONE', #85, 4.762500000000000178 ) ;
#1246 = ADVANCED_FACE ( 'NONE', ( #324 ), #1330, .F. ) ;
#1247 = DIRECTION ( 'NONE',  ( -0.000000000000000000, -0.000000000000000000, 1.000000000000000000 ) ) ;
#1248 = EDGE_CURVE ( 'NONE', #863, #1262, #219, .T. ) ;
#1249 = DIRECTION ( 'NONE',  ( -0.9362318318270996809, 0.3513829208622317180, 0.000000000000000000 ) ) ;
#1250 = CARTESIAN_POINT ( 'NONE',  ( -138.6675000000053899, -54.61000000000004917, -1.500000000000000000 ) ) ;
#1251 = ORIENTED_EDGE ( 'NONE', *, *, #829, .F. ) ;
#1252 = LINE ( 'NONE', #1156, #384 ) ;
#1253 = ORIENTED_EDGE ( 'NONE', *, *, #1332, .T. ) ;
#1254 = CARTESIAN_POINT ( 'NONE',  ( 0.2839990000000720549, -77.21500000000003183, 1.500000000000000000 ) ) ;
#1255 = EDGE_CURVE ( 'NONE', #440, #176, #710, .T. ) ;
#1256 = VECTOR ( 'NONE', #826, 1000.000000000000000 ) ;
#1257 = CARTESIAN_POINT ( 'NONE',  ( -138.6675000000053899, -54.61000000000004917, 1.500000000000000000 ) ) ;
#1258 = ORIENTED_EDGE ( 'NONE', *, *, #291, .T. ) ;
#1259 = FACE_OUTER_BOUND ( 'NONE', #593, .T. ) ;
#1260 = CIRCLE ( 'NONE', #345, 4.762500000000002842 ) ;
#1261 = FACE_OUTER_BOUND ( 'NONE', #167, .T. ) ;
#1262 = VERTEX_POINT ( 'NONE', #190 ) ;
#1263 = CARTESIAN_POINT ( 'NONE',  ( -2.143998999999929378, -103.7536284074074473, -1.500000000000000000 ) ) ;
#1264 = ORIENTED_EDGE ( 'NONE', *, *, #1142, .T. ) ;
#1265 = VECTOR ( 'NONE', #1007, 1000.000000000000000 ) ;
#1266 = VECTOR ( 'NONE', #1031, 1000.000000000000000 ) ;
#1267 =( LENGTH_UNIT ( ) NAMED_UNIT ( * ) SI_UNIT ( .MILLI., .METRE. ) );
#1268 = VERTEX_POINT ( 'NONE', #927 ) ;
#1269 = ORIENTED_EDGE ( 'NONE', *, *, #221, .T. ) ;
#1270 = ADVANCED_FACE ( 'NONE', ( #631 ), #212, .F. ) ;
#1271 = CARTESIAN_POINT ( 'NONE',  ( 2.070000000000071783, -77.21500000000003183, 1.500000000000000000 ) ) ;
#1272 = ORIENTED_EDGE ( 'NONE', *, *, #1033, .F. ) ;
#1273 = DIRECTION ( 'NONE',  ( -0.000000000000000000, -0.000000000000000000, 1.000000000000000000 ) ) ;
#1274 = ORIENTED_EDGE ( 'NONE', *, *, #914, .F. ) ;
#1275 = MECHANICAL_DESIGN_GEOMETRIC_PRESENTATION_REPRESENTATION (  '', ( #699 ), #247 ) ;
#1276 = CARTESIAN_POINT ( 'NONE',  ( -112.0521414152767790, -160.0582271066837734, -1.500000000000000000 ) ) ;
#1277 = EDGE_LOOP ( 'NONE', ( #1295, #764, #1264, #1042 ) ) ;
#1278 = CARTESIAN_POINT ( 'NONE',  ( -140.2160009999999488, -167.6400000000000432, 1.500000000000000000 ) ) ;
#1279 = CIRCLE ( 'NONE', #298, 1.786001000000009276 ) ;
#1280 = DIRECTION ( 'NONE',  ( -0.000000000000000000, -0.000000000000000000, 1.000000000000000000 ) ) ;
#1281 = AXIS2_PLACEMENT_3D ( 'NONE', #15, #429, #338 ) ;
#1282 = ORIENTED_EDGE ( 'NONE', *, *, #1091, .F. ) ;
#1283 = FACE_OUTER_BOUND ( 'NONE', #423, .T. ) ;
#1284 = VERTEX_POINT ( 'NONE', #724 ) ;
#1285 = CARTESIAN_POINT ( 'NONE',  ( -28.90398986512725088, -145.9600000000000364, 1.500000000000001332 ) ) ;
#1286 = AXIS2_PLACEMENT_3D ( 'NONE', #592, #821, #1227 ) ;
#1287 = EDGE_CURVE ( 'NONE', #865, #883, #1245, .T. ) ;
#1288 = CARTESIAN_POINT ( 'NONE',  ( -136.6439989999999227, -167.6400000000000432, 1.500000000000000000 ) ) ;
#1289 = ORIENTED_EDGE ( 'NONE', *, *, #994, .F. ) ;
#1290 = CARTESIAN_POINT ( 'NONE',  ( -112.0521414152767505, -155.2957271066837563, 1.500000000000000000 ) ) ;
#1291 = PRODUCT_DEFINITION_CONTEXT ( 'detailed design', #1157, 'design' ) ;
#1292 = ORIENTED_EDGE ( 'NONE', *, *, #342, .F. ) ;
#1293 = CARTESIAN_POINT ( 'NONE',  ( 2.070000000000071783, -77.21500000000003183, 1.500000000000000000 ) ) ;
#1294 = CARTESIAN_POINT ( 'NONE',  ( 7.070000000005405738, -157.4525000000051591, 1.500000000000000000 ) ) ;
#1295 = ORIENTED_EDGE ( 'NONE', *, *, #1167, .F. ) ;
#1296 = AXIS2_PLACEMENT_3D ( 'NONE', #220, #1045, #750 ) ;
#1297 = CARTESIAN_POINT ( 'NONE',  ( -129.3242157534729984, -171.1754006478065833, -1.500000000000000000 ) ) ;
#1298 = VERTEX_POINT ( 'NONE', #819 ) ;
#1299 = LINE ( 'NONE', #47, #1054 ) ;
#1300 = DIRECTION ( 'NONE',  ( 1.000000000000000000, 0.000000000000000000, 0.000000000000000000 ) ) ;
#1301 = ORIENTED_EDGE ( 'NONE', *, *, #413, .T. ) ;
#1302 = CIRCLE ( 'NONE', #277, 4.762500000000000178 ) ;
#1303 = DIRECTION ( 'NONE',  ( 1.000000000000000000, 0.000000000000000000, 0.000000000000000000 ) ) ;
#1304 = EDGE_CURVE ( 'NONE', #562, #902, #1337, .T. ) ;
#1305 = ORIENTED_EDGE ( 'NONE', *, *, #1304, .T. ) ;
#1306 = CARTESIAN_POINT ( 'NONE',  ( -119.2939898651272301, -60.96000000000002927, -1.500000000000000000 ) ) ;
#1307 = EDGE_CURVE ( 'NONE', #552, #629, #967, .T. ) ;
#1308 = DIRECTION ( 'NONE',  ( 0.000000000000000000, -0.000000000000000000, 1.000000000000000000 ) ) ;
#1309 = VERTEX_POINT ( 'NONE', #415 ) ;
#1310 = AXIS2_PLACEMENT_3D ( 'NONE', #719, #904, #198 ) ;
#1311 = VECTOR ( 'NONE', #297, 1000.000000000000000 ) ;
#1312 = FACE_OUTER_BOUND ( 'NONE', #45, .T. ) ;
#1313 = VERTEX_POINT ( 'NONE', #932 ) ;
#1314 = ADVANCED_FACE ( 'NONE', ( #1135 ), #409, .F. ) ;
#1315 = LINE ( 'NONE', #606, #405 ) ;
#1316 = DIRECTION ( 'NONE',  ( -0.000000000000000000, -0.000000000000000000, 1.000000000000000000 ) ) ;
#1317 = ORIENTED_EDGE ( 'NONE', *, *, #317, .T. ) ;
#1318 = FACE_BOUND ( 'NONE', #1113, .T. ) ;
#1319 = ORIENTED_EDGE ( 'NONE', *, *, #233, .F. ) ;
#1320 = PLANE ( 'NONE',  #746 ) ;
#1321 = CIRCLE ( 'NONE', #378, 2.110000000000000764 ) ;
#1322 = CARTESIAN_POINT ( 'NONE',  ( -138.4299999999999500, -167.6400000000000432, 1.500000000000000000 ) ) ;
#1323 = CARTESIAN_POINT ( 'NONE',  ( 7.070000000005405738, -54.61000000000002785, 1.500000000000000000 ) ) ;
#1324 = EDGE_CURVE ( 'NONE', #217, #1130, #1226, .T. ) ;
#1325 = DIRECTION ( 'NONE',  ( 1.000000000000000000, 0.000000000000000000, 0.000000000000000000 ) ) ;
#1326 = AXIS2_PLACEMENT_3D ( 'NONE', #507, #1217, #304 ) ;
#1327 = EDGE_LOOP ( 'NONE', ( #788, #211, #1258, #93 ) ) ;
#1328 = FACE_OUTER_BOUND ( 'NONE', #443, .T. ) ;
#1329 = CARTESIAN_POINT ( 'NONE',  ( 0.2839990000000724990, -157.2150000000000318, 1.500000000000000000 ) ) ;
#1330 = PLANE ( 'NONE',  #1176 ) ;
#1331 = EDGE_CURVE ( 'NONE', #781, #49, #404, .T. ) ;
#1332 = EDGE_CURVE ( 'NONE', #617, #209, #703, .T. ) ;
#1333 = AXIS2_PLACEMENT_3D ( 'NONE', #882, #895, #64 ) ;
#1334 = DIRECTION ( 'NONE',  ( 0.000000000000000000, 0.000000000000000000, -1.000000000000000000 ) ) ;
#1335 = ORIENTED_EDGE ( 'NONE', *, *, #613, .T. ) ;
#1336 = CARTESIAN_POINT ( 'NONE',  ( 2.307500000005404228, -54.61000000000002785, -1.500000000000000000 ) ) ;
#1337 = LINE ( 'NONE', #1037, #842 ) ;
#1338 = EDGE_CURVE ( 'NONE', #666, #1130, #1232, .T. ) ;
#1339 = CARTESIAN_POINT ( 'NONE',  ( -143.4300000000053785, -54.61000000000004917, -1.500000000000000000 ) ) ;
ENDSEC;
END-ISO-10303-21;
